<svg width="110" height="62" viewBox="0 0 110 62" fill="none" xmlns="http://www.w3.org/2000/svg">
<rect x="30.9098" y="9.86523" width="23" height="23" rx="11.5" transform="rotate(104.774 30.9098 9.86523)" fill="#FCB9B9"/>
<path d="M30.632 43L34.472 20.344C34.888 17.848 35.56 15.8 36.488 14.2C37.416 12.6 38.568 11.352 39.944 10.456C41.352 9.56 43 8.936 44.888 8.584C46.776 8.232 48.888 8.056 51.224 8.056C52.568 8.056 54.024 8.136 55.592 8.296C57.16 8.456 58.584 8.68 59.864 8.968L59.96 9.544C59.832 10.12 59.736 10.888 59.672 11.848C59.64 12.808 59.608 13.784 59.576 14.776C59.576 15.768 59.576 16.584 59.576 17.224V43H51.08V18.088C51.08 17.16 51.112 16.312 51.176 15.544C51.272 14.744 51.384 14.024 51.512 13.384L52.616 15.448C52.264 15.352 51.784 15.288 51.176 15.256C50.6 15.192 50.056 15.16 49.544 15.16C48.04 15.16 46.84 15.368 45.944 15.784C45.048 16.168 44.36 16.76 43.88 17.56C43.432 18.36 43.096 19.384 42.872 20.632L39.176 43H30.632ZM36.776 34.168V27.352H55.016V34.168H36.776ZM71.5216 34.792V27.88H79.6336C81.2336 27.88 82.5296 27.544 83.5216 26.872C84.5456 26.168 85.2976 25.272 85.7776 24.184C86.2576 23.096 86.4976 21.928 86.4976 20.68C86.4976 18.92 85.9856 17.624 84.9616 16.792C83.9696 15.96 82.6416 15.544 80.9776 15.544H71.5216V8.44H81.0256C84.1616 8.44 86.7536 8.936 88.8016 9.928C90.8816 10.888 92.4336 12.264 93.4576 14.056C94.5136 15.848 95.0416 17.96 95.0416 20.392C95.0416 22.632 94.6256 24.648 93.7936 26.44C92.9616 28.2 91.8256 29.704 90.3856 30.952C88.9776 32.2 87.3616 33.16 85.5376 33.832C83.7136 34.472 81.8096 34.792 79.8256 34.792H71.5216ZM66.9136 43V8.44H75.4576V43H66.9136ZM86.6896 43L79.7776 33.016L87.7456 31.672L96.0976 42.52V43H86.6896Z" fill="white"/>
<path d="M106.256 43.192C105.088 43.192 104.064 43.04 103.184 42.736C102.32 42.416 101.64 41.888 101.144 41.152C100.664 40.4 100.424 39.392 100.424 38.128V26.584H104.648V37.816C104.648 38.552 104.824 39.08 105.176 39.4C105.544 39.704 106.112 39.856 106.88 39.856C107.168 39.856 107.448 39.824 107.72 39.76C107.992 39.696 108.232 39.624 108.44 39.544H108.704V42.856C108.352 42.968 107.984 43.048 107.6 43.096C107.216 43.16 106.768 43.192 106.256 43.192ZM98.288 33.136V29.872H108.104V33.136H98.288Z" fill="white"/>
<path d="M16.9849 17.5694C23.1262 19.189 26.7918 25.4805 25.1722 31.6218V31.6218C23.5526 37.7631 17.2611 41.4286 11.1198 39.809V39.809C4.97854 38.1894 1.31297 31.898 2.93257 25.7567V25.7567C4.55217 19.6154 10.8436 15.9498 16.9849 17.5694V17.5694Z" fill="#9ADDE7"/>
<rect x="26.936" y="17.0918" width="19" height="19" rx="9.5" transform="rotate(104.774 26.936 17.0918)" fill="#B37BD5"/>
</svg>
