<svg width="548" height="237" viewBox="0 0 548 237" fill="none" xmlns="http://www.w3.org/2000/svg">
<path d="M4.44 55V12.4H33.06V19.66H12.72V30.64H29.64V37.36H12.72V55H4.44ZM38.3131 55V23.56H46.3531V55H38.3131ZM38.3131 19.18V11.2H46.3531V19.18H38.3131ZM83.0261 55H74.9861V37.36C74.9861 34.84 74.5461 33 73.6661 31.84C72.7861 30.68 71.5661 30.1 70.0061 30.1C68.9261 30.1 67.8261 30.38 66.7061 30.94C65.6261 31.5 64.6461 32.28 63.7661 33.28C62.8861 34.24 62.2461 35.36 61.8461 36.64V55H53.8061V23.56H61.0661V29.38C61.8661 28.02 62.8861 26.88 64.1261 25.96C65.3661 25 66.7861 24.28 68.3861 23.8C70.0261 23.28 71.7461 23.02 73.5461 23.02C75.5061 23.02 77.1061 23.38 78.3461 24.1C79.6261 24.78 80.5861 25.72 81.2261 26.92C81.9061 28.08 82.3661 29.4 82.6061 30.88C82.8861 32.36 83.0261 33.86 83.0261 35.38V55ZM88.297 39.28C88.297 36.24 88.897 33.5 90.097 31.06C91.297 28.58 92.957 26.62 95.077 25.18C97.197 23.74 99.617 23.02 102.337 23.02C104.657 23.02 106.737 23.6 108.577 24.76C110.457 25.88 111.917 27.32 112.957 29.08V11.2H120.997V46C120.997 46.84 121.137 47.44 121.417 47.8C121.697 48.16 122.177 48.38 122.857 48.46V55C121.457 55.28 120.317 55.42 119.437 55.42C117.997 55.42 116.797 55.06 115.837 54.34C114.917 53.62 114.397 52.68 114.277 51.52L114.157 49.54C112.997 51.5 111.417 53 109.417 54.04C107.457 55.08 105.397 55.6 103.237 55.6C101.077 55.6 99.077 55.18 97.237 54.34C95.437 53.5 93.857 52.34 92.497 50.86C91.177 49.38 90.137 47.66 89.377 45.7C88.657 43.7 88.297 41.56 88.297 39.28ZM112.957 43.48V35.98C112.557 34.82 111.917 33.78 111.037 32.86C110.157 31.94 109.177 31.22 108.097 30.7C107.017 30.14 105.937 29.86 104.857 29.86C103.617 29.86 102.497 30.12 101.497 30.64C100.497 31.16 99.617 31.86 98.857 32.74C98.137 33.62 97.577 34.64 97.177 35.8C96.817 36.96 96.637 38.18 96.637 39.46C96.637 40.74 96.837 41.96 97.237 43.12C97.677 44.24 98.297 45.22 99.097 46.06C99.897 46.9 100.817 47.56 101.857 48.04C102.937 48.52 104.097 48.76 105.337 48.76C106.097 48.76 106.857 48.64 107.617 48.4C108.417 48.12 109.157 47.76 109.837 47.32C110.557 46.84 111.177 46.28 111.697 45.64C112.257 44.96 112.677 44.24 112.957 43.48ZM181.004 23.56H188.624L175.484 55H168.764L163.484 41.5L158.324 55H151.544L138.464 23.56H146.024L155.384 47.32L159.044 37.06L153.584 23.62H160.244L163.484 33.22L166.784 23.62H173.444L167.984 37.06L171.704 47.32L181.004 23.56ZM221.756 55H213.716V37.36C213.716 34.92 213.236 33.1 212.276 31.9C211.356 30.7 210.076 30.1 208.436 30.1C207.476 30.1 206.456 30.38 205.376 30.94C204.296 31.5 203.316 32.28 202.436 33.28C201.596 34.24 200.976 35.36 200.576 36.64V55H192.536V11.2H200.576V29.38C201.736 27.38 203.316 25.82 205.316 24.7C207.316 23.58 209.496 23.02 211.856 23.02C213.896 23.02 215.556 23.38 216.836 24.1C218.116 24.78 219.116 25.72 219.836 26.92C220.556 28.08 221.056 29.4 221.336 30.88C221.616 32.32 221.756 33.82 221.756 35.38V55ZM226.787 45.7C226.787 43.66 227.347 41.88 228.467 40.36C229.627 38.8 231.227 37.6 233.267 36.76C235.307 35.92 237.647 35.5 240.287 35.5C241.607 35.5 242.947 35.6 244.307 35.8C245.667 36 246.847 36.32 247.847 36.76V35.08C247.847 33.08 247.247 31.54 246.047 30.46C244.887 29.38 243.147 28.84 240.827 28.84C239.107 28.84 237.467 29.14 235.907 29.74C234.347 30.34 232.707 31.22 230.987 32.38L228.407 27.1C230.487 25.74 232.607 24.72 234.767 24.04C236.967 23.36 239.267 23.02 241.667 23.02C246.147 23.02 249.627 24.14 252.107 26.38C254.627 28.62 255.887 31.82 255.887 35.98V46C255.887 46.84 256.027 47.44 256.307 47.8C256.627 48.16 257.127 48.38 257.807 48.46V55C257.087 55.12 256.427 55.22 255.827 55.3C255.267 55.38 254.787 55.42 254.387 55.42C252.787 55.42 251.567 55.06 250.727 54.34C249.927 53.62 249.427 52.74 249.227 51.7L249.047 50.08C247.687 51.84 245.987 53.2 243.947 54.16C241.907 55.12 239.827 55.6 237.707 55.6C235.627 55.6 233.747 55.18 232.067 54.34C230.427 53.46 229.127 52.28 228.167 50.8C227.247 49.28 226.787 47.58 226.787 45.7ZM246.347 47.32C246.787 46.84 247.147 46.36 247.427 45.88C247.707 45.4 247.847 44.96 247.847 44.56V41.38C246.887 40.98 245.847 40.68 244.727 40.48C243.607 40.24 242.547 40.12 241.547 40.12C239.467 40.12 237.747 40.58 236.387 41.5C235.067 42.38 234.407 43.56 234.407 45.04C234.407 45.84 234.627 46.6 235.067 47.32C235.507 48.04 236.147 48.62 236.987 49.06C237.827 49.5 238.827 49.72 239.987 49.72C241.187 49.72 242.367 49.5 243.527 49.06C244.687 48.58 245.627 48 246.347 47.32ZM282.147 53.38C281.467 53.66 280.647 53.98 279.687 54.34C278.727 54.7 277.687 54.98 276.567 55.18C275.487 55.42 274.387 55.54 273.267 55.54C271.787 55.54 270.427 55.28 269.187 54.76C267.947 54.24 266.947 53.42 266.187 52.3C265.467 51.14 265.107 49.64 265.107 47.8V29.74H260.967V23.56H265.107V13.36H273.147V23.56H279.747V29.74H273.147V45.1C273.187 46.18 273.487 46.96 274.047 47.44C274.607 47.92 275.307 48.16 276.147 48.16C276.987 48.16 277.807 48.02 278.607 47.74C279.407 47.46 280.047 47.22 280.527 47.02L282.147 53.38ZM319.028 55.6C316.628 55.6 314.488 55.06 312.608 53.98C310.728 52.9 309.248 51.42 308.168 49.54V55H301.148V11.2H309.188V29.08C310.308 27.2 311.768 25.72 313.568 24.64C315.408 23.56 317.548 23.02 319.988 23.02C322.028 23.02 323.888 23.46 325.568 24.34C327.248 25.18 328.688 26.36 329.888 27.88C331.128 29.4 332.068 31.14 332.708 33.1C333.388 35.06 333.728 37.16 333.728 39.4C333.728 41.64 333.348 43.74 332.588 45.7C331.868 47.66 330.848 49.4 329.528 50.92C328.208 52.4 326.648 53.56 324.848 54.4C323.088 55.2 321.148 55.6 319.028 55.6ZM316.808 48.76C318.088 48.76 319.248 48.52 320.288 48.04C321.368 47.52 322.288 46.84 323.048 46C323.848 45.16 324.448 44.18 324.848 43.06C325.288 41.9 325.508 40.7 325.508 39.46C325.508 37.74 325.148 36.16 324.428 34.72C323.748 33.24 322.788 32.06 321.548 31.18C320.348 30.3 318.928 29.86 317.288 29.86C316.128 29.86 315.008 30.14 313.928 30.7C312.888 31.22 311.948 31.94 311.108 32.86C310.308 33.78 309.668 34.82 309.188 35.98V43.48C309.428 44.28 309.808 45 310.328 45.64C310.888 46.28 311.528 46.84 312.248 47.32C312.968 47.76 313.708 48.12 314.468 48.4C315.268 48.64 316.048 48.76 316.808 48.76ZM353.956 55.6C351.436 55.6 349.156 55.18 347.116 54.34C345.076 53.46 343.336 52.28 341.896 50.8C340.456 49.28 339.336 47.56 338.536 45.64C337.776 43.68 337.396 41.62 337.396 39.46C337.396 36.46 338.056 33.72 339.376 31.24C340.736 28.76 342.656 26.78 345.136 25.3C347.656 23.78 350.616 23.02 354.016 23.02C357.456 23.02 360.396 23.78 362.836 25.3C365.276 26.78 367.136 28.76 368.416 31.24C369.736 33.68 370.396 36.32 370.396 39.16C370.396 39.64 370.376 40.14 370.336 40.66C370.296 41.14 370.256 41.54 370.216 41.86H345.916C346.076 43.46 346.536 44.86 347.296 46.06C348.096 47.26 349.096 48.18 350.296 48.82C351.536 49.42 352.856 49.72 354.256 49.72C355.856 49.72 357.356 49.34 358.756 48.58C360.196 47.78 361.176 46.74 361.696 45.46L368.596 47.38C367.836 48.98 366.736 50.4 365.296 51.64C363.896 52.88 362.236 53.86 360.316 54.58C358.396 55.26 356.276 55.6 353.956 55.6ZM345.736 36.76H362.176C362.016 35.16 361.556 33.78 360.796 32.62C360.076 31.42 359.116 30.5 357.916 29.86C356.716 29.18 355.376 28.84 353.896 28.84C352.456 28.84 351.136 29.18 349.936 29.86C348.776 30.5 347.816 31.42 347.056 32.62C346.336 33.78 345.896 35.16 345.736 36.76ZM387.074 55.6C384.394 55.6 381.834 55.16 379.394 54.28C376.954 53.4 374.854 52.1 373.094 50.38L375.974 45.16C377.854 46.68 379.694 47.8 381.494 48.52C383.334 49.24 385.094 49.6 386.774 49.6C388.334 49.6 389.574 49.32 390.494 48.76C391.454 48.2 391.934 47.36 391.934 46.24C391.934 45.48 391.674 44.9 391.154 44.5C390.634 44.06 389.874 43.68 388.874 43.36C387.914 43.04 386.734 42.68 385.334 42.28C383.014 41.52 381.074 40.78 379.514 40.06C377.954 39.34 376.774 38.44 375.974 37.36C375.214 36.24 374.834 34.82 374.834 33.1C374.834 31.02 375.354 29.24 376.394 27.76C377.474 26.24 378.954 25.06 380.834 24.22C382.754 23.38 384.994 22.96 387.554 22.96C389.794 22.96 391.914 23.32 393.914 24.04C395.914 24.72 397.734 25.84 399.374 27.4L396.134 32.5C394.534 31.26 393.014 30.36 391.574 29.8C390.134 29.2 388.674 28.9 387.194 28.9C386.354 28.9 385.554 29 384.794 29.2C384.074 29.4 383.474 29.74 382.994 30.22C382.554 30.66 382.334 31.3 382.334 32.14C382.334 32.9 382.534 33.5 382.934 33.94C383.374 34.34 384.014 34.7 384.854 35.02C385.734 35.34 386.794 35.7 388.034 36.1C390.554 36.82 392.674 37.56 394.394 38.32C396.154 39.08 397.474 40.02 398.354 41.14C399.234 42.22 399.674 43.72 399.674 45.64C399.674 48.76 398.534 51.2 396.254 52.96C393.974 54.72 390.914 55.6 387.074 55.6ZM424.006 53.38C423.326 53.66 422.506 53.98 421.546 54.34C420.586 54.7 419.546 54.98 418.426 55.18C417.346 55.42 416.246 55.54 415.126 55.54C413.646 55.54 412.286 55.28 411.046 54.76C409.806 54.24 408.806 53.42 408.046 52.3C407.326 51.14 406.966 49.64 406.966 47.8V29.74H402.826V23.56H406.966V13.36H415.006V23.56H421.606V29.74H415.006V45.1C415.046 46.18 415.346 46.96 415.906 47.44C416.466 47.92 417.166 48.16 418.006 48.16C418.846 48.16 419.666 48.02 420.466 47.74C421.266 47.46 421.906 47.22 422.386 47.02L424.006 53.38ZM5.58 98.36H1.44V92.24H5.58V90.32C5.58 88.56 5.86 86.92 6.42 85.4C7.02 83.88 7.86 82.54 8.94 81.38C10.06 80.18 11.4 79.26 12.96 78.62C14.56 77.94 16.36 77.6 18.36 77.6C19.88 77.6 21.3 77.76 22.62 78.08C23.98 78.4 25.26 78.86 26.46 79.46C27.7 80.06 28.88 80.74 30 81.5L26.82 87.5C25.78 86.58 24.56 85.84 23.16 85.28C21.76 84.72 20.34 84.44 18.9 84.44C17.74 84.44 16.76 84.7 15.96 85.22C15.16 85.74 14.56 86.42 14.16 87.26C13.8 88.1 13.62 89.02 13.62 90.02V92.24H30.48V122H22.44V98.36H13.62V122H5.58V98.36ZM56.8016 120.38C56.1216 120.66 55.3016 120.98 54.3416 121.34C53.3816 121.7 52.3416 121.98 51.2216 122.18C50.1416 122.42 49.0416 122.54 47.9216 122.54C46.4416 122.54 45.0816 122.28 43.8416 121.76C42.6016 121.24 41.6016 120.42 40.8416 119.3C40.1216 118.14 39.7616 116.64 39.7616 114.8V96.74H35.6216V90.56H39.7616V80.36H47.8016V90.56H54.4016V96.74H47.8016V112.1C47.8416 113.18 48.1416 113.96 48.7016 114.44C49.2616 114.92 49.9616 115.16 50.8016 115.16C51.6416 115.16 52.4616 115.02 53.2616 114.74C54.0616 114.46 54.7016 114.22 55.1816 114.02L56.8016 120.38ZM72.7689 122.6C70.0889 122.6 67.5289 122.16 65.0889 121.28C62.6489 120.4 60.5489 119.1 58.7889 117.38L61.6689 112.16C63.5489 113.68 65.3889 114.8 67.1889 115.52C69.0289 116.24 70.7889 116.6 72.4689 116.6C74.0289 116.6 75.2689 116.32 76.1889 115.76C77.1489 115.2 77.6289 114.36 77.6289 113.24C77.6289 112.48 77.3689 111.9 76.8489 111.5C76.3289 111.06 75.5689 110.68 74.5689 110.36C73.6089 110.04 72.4289 109.68 71.0289 109.28C68.7089 108.52 66.7689 107.78 65.2089 107.06C63.6489 106.34 62.4689 105.44 61.6689 104.36C60.9089 103.24 60.5289 101.82 60.5289 100.1C60.5289 98.02 61.0489 96.24 62.0889 94.76C63.1689 93.24 64.6489 92.06 66.5289 91.22C68.4489 90.38 70.6889 89.96 73.2489 89.96C75.4889 89.96 77.6089 90.32 79.6089 91.04C81.6089 91.72 83.4289 92.84 85.0689 94.4L81.8289 99.5C80.2289 98.26 78.7089 97.36 77.2689 96.8C75.8289 96.2 74.3689 95.9 72.8889 95.9C72.0489 95.9 71.2489 96 70.4889 96.2C69.7689 96.4 69.1689 96.74 68.6889 97.22C68.2489 97.66 68.0289 98.3 68.0289 99.14C68.0289 99.9 68.2289 100.5 68.6289 100.94C69.0689 101.34 69.7089 101.7 70.5489 102.02C71.4289 102.34 72.4889 102.7 73.7289 103.1C76.2489 103.82 78.3689 104.56 80.0889 105.32C81.8489 106.08 83.1689 107.02 84.0489 108.14C84.9289 109.22 85.3689 110.72 85.3689 112.64C85.3689 115.76 84.2289 118.2 81.9489 119.96C79.6689 121.72 76.6089 122.6 72.7689 122.6ZM105.651 122V90.56H113.691V122H105.651ZM105.651 86.18V78.2H113.691V86.18H105.651ZM150.364 122H142.324V104.36C142.324 101.84 141.884 100 141.004 98.84C140.124 97.68 138.904 97.1 137.344 97.1C136.264 97.1 135.164 97.38 134.044 97.94C132.964 98.5 131.984 99.28 131.104 100.28C130.224 101.24 129.584 102.36 129.184 103.64V122H121.144V90.56H128.404V96.38C129.204 95.02 130.224 93.88 131.464 92.96C132.704 92 134.124 91.28 135.724 90.8C137.364 90.28 139.084 90.02 140.884 90.02C142.844 90.02 144.444 90.38 145.684 91.1C146.964 91.78 147.924 92.72 148.564 93.92C149.244 95.08 149.704 96.4 149.944 97.88C150.224 99.36 150.364 100.86 150.364 102.38V122ZM171.189 128.12C171.909 128.28 172.569 128.42 173.169 128.54C173.809 128.66 174.349 128.72 174.789 128.72C175.549 128.72 176.169 128.52 176.649 128.12C177.169 127.76 177.669 127.08 178.149 126.08C178.629 125.12 179.129 123.76 179.649 122L167.229 90.56H175.569L184.029 113.78L191.469 90.56H199.149L185.949 128.24C185.469 129.64 184.729 130.9 183.729 132.02C182.769 133.18 181.549 134.08 180.069 134.72C178.629 135.4 177.009 135.74 175.209 135.74C174.569 135.74 173.929 135.68 173.289 135.56C172.649 135.48 171.949 135.32 171.189 135.08V128.12ZM217.182 122.6C214.622 122.6 212.322 122.18 210.282 121.34C208.242 120.46 206.502 119.26 205.062 117.74C203.662 116.22 202.582 114.48 201.822 112.52C201.062 110.56 200.682 108.5 200.682 106.34C200.682 104.14 201.062 102.06 201.822 100.1C202.582 98.14 203.662 96.4 205.062 94.88C206.502 93.36 208.242 92.18 210.282 91.34C212.322 90.46 214.622 90.02 217.182 90.02C219.742 90.02 222.022 90.46 224.022 91.34C226.062 92.18 227.802 93.36 229.242 94.88C230.682 96.4 231.762 98.14 232.482 100.1C233.242 102.06 233.622 104.14 233.622 106.34C233.622 108.5 233.242 110.56 232.482 112.52C231.762 114.48 230.682 116.22 229.242 117.74C227.842 119.26 226.122 120.46 224.082 121.34C222.042 122.18 219.742 122.6 217.182 122.6ZM208.962 106.34C208.962 108.18 209.322 109.82 210.042 111.26C210.762 112.66 211.742 113.76 212.982 114.56C214.222 115.36 215.622 115.76 217.182 115.76C218.702 115.76 220.082 115.36 221.322 114.56C222.562 113.72 223.542 112.6 224.262 111.2C225.022 109.76 225.402 108.12 225.402 106.28C225.402 104.48 225.022 102.86 224.262 101.42C223.542 99.98 222.562 98.86 221.322 98.06C220.082 97.26 218.702 96.86 217.182 96.86C215.622 96.86 214.222 97.28 212.982 98.12C211.742 98.92 210.762 100.04 210.042 101.48C209.322 102.88 208.962 104.5 208.962 106.34ZM238.949 110.24V90.56H246.989V108.5C246.989 110.9 247.429 112.72 248.309 113.96C249.189 115.16 250.489 115.76 252.209 115.76C253.249 115.76 254.269 115.56 255.269 115.16C256.309 114.72 257.249 114.08 258.089 113.24C258.969 112.4 259.709 111.34 260.309 110.06V90.56H268.349V113C268.349 113.84 268.489 114.44 268.769 114.8C269.089 115.16 269.589 115.38 270.269 115.46V122C269.469 122.12 268.789 122.2 268.229 122.24C267.709 122.32 267.229 122.36 266.789 122.36C265.349 122.36 264.169 122.04 263.249 121.4C262.369 120.72 261.849 119.8 261.689 118.64L261.509 116.12C260.109 118.24 258.309 119.86 256.109 120.98C253.909 122.06 251.489 122.6 248.849 122.6C245.609 122.6 243.149 121.56 241.469 119.48C239.789 117.36 238.949 114.28 238.949 110.24ZM295.259 97.52C292.819 97.52 290.639 98 288.719 98.96C286.799 99.88 285.419 101.22 284.579 102.98V122H276.539V90.56H283.919V97.28C285.039 95.12 286.459 93.42 288.179 92.18C289.899 90.94 291.719 90.26 293.639 90.14C294.079 90.14 294.419 90.14 294.659 90.14C294.899 90.14 295.099 90.16 295.259 90.2V97.52ZM324.788 122.6C322.108 122.6 319.548 122.16 317.108 121.28C314.668 120.4 312.568 119.1 310.808 117.38L313.688 112.16C315.568 113.68 317.408 114.8 319.208 115.52C321.048 116.24 322.808 116.6 324.488 116.6C326.048 116.6 327.288 116.32 328.208 115.76C329.168 115.2 329.648 114.36 329.648 113.24C329.648 112.48 329.388 111.9 328.868 111.5C328.348 111.06 327.588 110.68 326.588 110.36C325.628 110.04 324.448 109.68 323.048 109.28C320.728 108.52 318.788 107.78 317.228 107.06C315.668 106.34 314.488 105.44 313.688 104.36C312.928 103.24 312.548 101.82 312.548 100.1C312.548 98.02 313.068 96.24 314.108 94.76C315.188 93.24 316.668 92.06 318.548 91.22C320.468 90.38 322.708 89.96 325.268 89.96C327.508 89.96 329.628 90.32 331.628 91.04C333.628 91.72 335.448 92.84 337.088 94.4L333.848 99.5C332.248 98.26 330.728 97.36 329.288 96.8C327.848 96.2 326.388 95.9 324.908 95.9C324.068 95.9 323.268 96 322.508 96.2C321.788 96.4 321.188 96.74 320.708 97.22C320.268 97.66 320.048 98.3 320.048 99.14C320.048 99.9 320.248 100.5 320.648 100.94C321.088 101.34 321.728 101.7 322.568 102.02C323.448 102.34 324.508 102.7 325.748 103.1C328.268 103.82 330.388 104.56 332.108 105.32C333.868 106.08 335.188 107.02 336.068 108.14C336.948 109.22 337.388 110.72 337.388 112.64C337.388 115.76 336.248 118.2 333.968 119.96C331.688 121.72 328.628 122.6 324.788 122.6ZM361.897 122.6C359.457 122.6 357.297 122.06 355.417 120.98C353.577 119.86 352.137 118.36 351.097 116.48V134.78H343.057V90.56H350.077V95.96C351.277 94.12 352.797 92.68 354.637 91.64C356.477 90.56 358.577 90.02 360.937 90.02C363.057 90.02 364.997 90.44 366.757 91.28C368.557 92.12 370.117 93.3 371.437 94.82C372.757 96.3 373.777 98.02 374.497 99.98C375.257 101.9 375.637 103.98 375.637 106.22C375.637 109.26 375.037 112.02 373.837 114.5C372.677 116.98 371.057 118.96 368.977 120.44C366.937 121.88 364.577 122.6 361.897 122.6ZM359.197 115.76C360.437 115.76 361.557 115.5 362.557 114.98C363.557 114.46 364.417 113.76 365.137 112.88C365.897 111.96 366.457 110.94 366.817 109.82C367.217 108.66 367.417 107.46 367.417 106.22C367.417 104.9 367.197 103.68 366.757 102.56C366.357 101.44 365.757 100.46 364.957 99.62C364.157 98.74 363.217 98.06 362.137 97.58C361.097 97.1 359.957 96.86 358.717 96.86C357.957 96.86 357.177 97 356.377 97.28C355.617 97.52 354.877 97.88 354.157 98.36C353.437 98.84 352.797 99.4 352.237 100.04C351.717 100.68 351.337 101.38 351.097 102.14V109.52C351.577 110.68 352.217 111.74 353.017 112.7C353.857 113.66 354.817 114.42 355.897 114.98C356.977 115.5 358.077 115.76 359.197 115.76ZM379.124 112.7C379.124 110.66 379.684 108.88 380.804 107.36C381.964 105.8 383.564 104.6 385.604 103.76C387.644 102.92 389.984 102.5 392.624 102.5C393.944 102.5 395.284 102.6 396.644 102.8C398.004 103 399.184 103.32 400.184 103.76V102.08C400.184 100.08 399.584 98.54 398.384 97.46C397.224 96.38 395.484 95.84 393.164 95.84C391.444 95.84 389.804 96.14 388.244 96.74C386.684 97.34 385.044 98.22 383.324 99.38L380.744 94.1C382.824 92.74 384.944 91.72 387.104 91.04C389.304 90.36 391.604 90.02 394.004 90.02C398.484 90.02 401.964 91.14 404.444 93.38C406.964 95.62 408.224 98.82 408.224 102.98V113C408.224 113.84 408.364 114.44 408.644 114.8C408.964 115.16 409.464 115.38 410.144 115.46V122C409.424 122.12 408.764 122.22 408.164 122.3C407.604 122.38 407.124 122.42 406.724 122.42C405.124 122.42 403.904 122.06 403.064 121.34C402.264 120.62 401.764 119.74 401.564 118.7L401.384 117.08C400.024 118.84 398.324 120.2 396.284 121.16C394.244 122.12 392.164 122.6 390.044 122.6C387.964 122.6 386.084 122.18 384.404 121.34C382.764 120.46 381.464 119.28 380.504 117.8C379.584 116.28 379.124 114.58 379.124 112.7ZM398.684 114.32C399.124 113.84 399.484 113.36 399.764 112.88C400.044 112.4 400.184 111.96 400.184 111.56V108.38C399.224 107.98 398.184 107.68 397.064 107.48C395.944 107.24 394.884 107.12 393.884 107.12C391.804 107.12 390.084 107.58 388.724 108.5C387.404 109.38 386.744 110.56 386.744 112.04C386.744 112.84 386.964 113.6 387.404 114.32C387.844 115.04 388.484 115.62 389.324 116.06C390.164 116.5 391.164 116.72 392.324 116.72C393.524 116.72 394.704 116.5 395.864 116.06C397.024 115.58 397.964 115 398.684 114.32ZM430.577 122.6C428.017 122.6 425.717 122.18 423.677 121.34C421.637 120.46 419.897 119.26 418.457 117.74C417.017 116.18 415.897 114.42 415.097 112.46C414.337 110.5 413.957 108.44 413.957 106.28C413.957 103.32 414.617 100.62 415.937 98.18C417.297 95.7 419.217 93.72 421.697 92.24C424.177 90.76 427.117 90.02 430.517 90.02C433.917 90.02 436.837 90.76 439.277 92.24C441.717 93.72 443.537 95.66 444.737 98.06L436.877 100.46C436.197 99.3 435.297 98.42 434.177 97.82C433.057 97.18 431.817 96.86 430.457 96.86C428.937 96.86 427.537 97.26 426.257 98.06C425.017 98.82 424.037 99.92 423.317 101.36C422.597 102.76 422.237 104.4 422.237 106.28C422.237 108.12 422.597 109.76 423.317 111.2C424.077 112.6 425.077 113.72 426.317 114.56C427.557 115.36 428.937 115.76 430.457 115.76C431.417 115.76 432.317 115.6 433.157 115.28C434.037 114.96 434.817 114.52 435.497 113.96C436.177 113.4 436.677 112.76 436.997 112.04L444.857 114.44C444.137 116 443.077 117.4 441.677 118.64C440.317 119.88 438.697 120.86 436.817 121.58C434.977 122.26 432.897 122.6 430.577 122.6ZM464.292 122.6C461.772 122.6 459.492 122.18 457.452 121.34C455.412 120.46 453.672 119.28 452.232 117.8C450.792 116.28 449.672 114.56 448.872 112.64C448.112 110.68 447.732 108.62 447.732 106.46C447.732 103.46 448.392 100.72 449.712 98.24C451.072 95.76 452.992 93.78 455.472 92.3C457.992 90.78 460.952 90.02 464.352 90.02C467.792 90.02 470.732 90.78 473.172 92.3C475.612 93.78 477.472 95.76 478.752 98.24C480.072 100.68 480.732 103.32 480.732 106.16C480.732 106.64 480.712 107.14 480.672 107.66C480.632 108.14 480.592 108.54 480.552 108.86H456.252C456.412 110.46 456.872 111.86 457.632 113.06C458.432 114.26 459.432 115.18 460.632 115.82C461.872 116.42 463.192 116.72 464.592 116.72C466.192 116.72 467.692 116.34 469.092 115.58C470.532 114.78 471.512 113.74 472.032 112.46L478.932 114.38C478.172 115.98 477.072 117.4 475.632 118.64C474.232 119.88 472.572 120.86 470.652 121.58C468.732 122.26 466.612 122.6 464.292 122.6ZM456.072 103.76H472.512C472.352 102.16 471.892 100.78 471.132 99.62C470.412 98.42 469.452 97.5 468.252 96.86C467.052 96.18 465.712 95.84 464.232 95.84C462.792 95.84 461.472 96.18 460.272 96.86C459.112 97.5 458.152 98.42 457.392 99.62C456.672 100.78 456.232 102.16 456.072 103.76ZM487.39 105.98V78.98H495.43V105.98H487.39ZM487.39 122V112.94H495.43V122H487.39Z" fill="black"/>
<path d="M14.328 172.88H8.448V188H6.288V172.88H0.408V170.96H14.328V172.88ZM27.5182 188H25.4062V180.992C25.4062 179.712 25.1742 178.752 24.7102 178.112C24.2622 177.472 23.6142 177.152 22.7662 177.152C22.2222 177.152 21.6702 177.296 21.1102 177.584C20.5662 177.872 20.0862 178.264 19.6702 178.76C19.2542 179.24 18.9502 179.8 18.7582 180.44V188H16.6462V170.48H18.7582V178.16C19.2542 177.264 19.9262 176.56 20.7742 176.048C21.6382 175.52 22.5662 175.256 23.5582 175.256C24.3102 175.256 24.9342 175.392 25.4302 175.664C25.9422 175.92 26.3502 176.288 26.6542 176.768C26.9582 177.248 27.1742 177.808 27.3022 178.448C27.4462 179.072 27.5182 179.76 27.5182 180.512V188ZM36.5464 188.24C35.6024 188.24 34.7384 188.072 33.9544 187.736C33.1864 187.384 32.5144 186.912 31.9384 186.32C31.3784 185.712 30.9384 185.016 30.6184 184.232C30.3144 183.448 30.1624 182.616 30.1624 181.736C30.1624 180.552 30.4344 179.472 30.9784 178.496C31.5224 177.52 32.2744 176.736 33.2344 176.144C34.2104 175.552 35.3224 175.256 36.5704 175.256C37.8344 175.256 38.9304 175.56 39.8584 176.168C40.8024 176.76 41.5304 177.544 42.0424 178.52C42.5704 179.48 42.8344 180.52 42.8344 181.64C42.8344 181.8 42.8264 181.96 42.8104 182.12C42.8104 182.264 42.8024 182.376 42.7864 182.456H32.3944C32.4584 183.272 32.6824 184 33.0664 184.64C33.4664 185.264 33.9784 185.76 34.6024 186.128C35.2264 186.48 35.8984 186.656 36.6184 186.656C37.3864 186.656 38.1064 186.464 38.7784 186.08C39.4664 185.696 39.9384 185.192 40.1944 184.568L42.0184 185.072C41.7464 185.68 41.3384 186.224 40.7944 186.704C40.2664 187.184 39.6344 187.56 38.8984 187.832C38.1784 188.104 37.3944 188.24 36.5464 188.24ZM32.3224 180.992H40.8664C40.8024 180.176 40.5704 179.456 40.1704 178.832C39.7704 178.208 39.2584 177.72 38.6344 177.368C38.0104 177.016 37.3224 176.84 36.5704 176.84C35.8344 176.84 35.1544 177.016 34.5304 177.368C33.9064 177.72 33.3944 178.208 32.9944 178.832C32.6104 179.456 32.3864 180.176 32.3224 180.992ZM52.0061 177.32C50.9501 177.336 50.0141 177.608 49.1981 178.136C48.3981 178.648 47.8301 179.36 47.4941 180.272V188H45.3821V175.472H47.3501V178.376C47.7821 177.512 48.3501 176.816 49.0541 176.288C49.7741 175.744 50.5261 175.44 51.3101 175.376C51.4701 175.376 51.6061 175.376 51.7181 175.376C51.8301 175.376 51.9261 175.384 52.0061 175.4V177.32ZM59.5402 188.24C58.5962 188.24 57.7322 188.072 56.9482 187.736C56.1802 187.384 55.5082 186.912 54.9322 186.32C54.3722 185.712 53.9322 185.016 53.6122 184.232C53.3082 183.448 53.1562 182.616 53.1562 181.736C53.1562 180.552 53.4282 179.472 53.9722 178.496C54.5162 177.52 55.2682 176.736 56.2282 176.144C57.2042 175.552 58.3162 175.256 59.5642 175.256C60.8282 175.256 61.9242 175.56 62.8522 176.168C63.7962 176.76 64.5242 177.544 65.0362 178.52C65.5642 179.48 65.8282 180.52 65.8282 181.64C65.8282 181.8 65.8202 181.96 65.8042 182.12C65.8042 182.264 65.7962 182.376 65.7802 182.456H55.3882C55.4522 183.272 55.6762 184 56.0602 184.64C56.4602 185.264 56.9722 185.76 57.5962 186.128C58.2202 186.48 58.8922 186.656 59.6122 186.656C60.3802 186.656 61.1002 186.464 61.7722 186.08C62.4602 185.696 62.9322 185.192 63.1882 184.568L65.0122 185.072C64.7402 185.68 64.3322 186.224 63.7882 186.704C63.2602 187.184 62.6282 187.56 61.8922 187.832C61.1722 188.104 60.3882 188.24 59.5402 188.24ZM55.3162 180.992H63.8602C63.7962 180.176 63.5642 179.456 63.1642 178.832C62.7642 178.208 62.2522 177.72 61.6282 177.368C61.0042 177.016 60.3162 176.84 59.5642 176.84C58.8282 176.84 58.1482 177.016 57.5242 177.368C56.9002 177.72 56.3882 178.208 55.9882 178.832C55.6042 179.456 55.3802 180.176 55.3162 180.992ZM73.6622 184.376C73.6622 183.576 73.8862 182.888 74.3342 182.312C74.7982 181.72 75.4302 181.264 76.2302 180.944C77.0302 180.624 77.9582 180.464 79.0142 180.464C79.5742 180.464 80.1662 180.512 80.7902 180.608C81.4142 180.688 81.9662 180.816 82.4462 180.992V180.08C82.4462 179.12 82.1582 178.368 81.5822 177.824C81.0062 177.264 80.1902 176.984 79.1342 176.984C78.4462 176.984 77.7822 177.112 77.1422 177.368C76.5182 177.608 75.8542 177.96 75.1502 178.424L74.3822 176.936C75.1982 176.376 76.0142 175.96 76.8302 175.688C77.6462 175.4 78.4942 175.256 79.3742 175.256C80.9742 175.256 82.2382 175.704 83.1662 176.6C84.0942 177.48 84.5582 178.712 84.5582 180.296V185.6C84.5582 185.856 84.6062 186.048 84.7022 186.176C84.8142 186.288 84.9902 186.352 85.2302 186.368V188C85.0222 188.032 84.8382 188.056 84.6782 188.072C84.5342 188.088 84.4142 188.096 84.3182 188.096C83.8222 188.096 83.4462 187.96 83.1902 187.688C82.9502 187.416 82.8142 187.128 82.7822 186.824L82.7342 186.032C82.1902 186.736 81.4782 187.28 80.5982 187.664C79.7182 188.048 78.8462 188.24 77.9822 188.24C77.1502 188.24 76.4062 188.072 75.7502 187.736C75.0942 187.384 74.5822 186.92 74.2142 186.344C73.8462 185.752 73.6622 185.096 73.6622 184.376ZM81.8222 185.264C82.0142 185.04 82.1662 184.816 82.2782 184.592C82.3902 184.352 82.4462 184.152 82.4462 183.992V182.432C81.9502 182.24 81.4302 182.096 80.8862 182C80.3422 181.888 79.8062 181.832 79.2782 181.832C78.2062 181.832 77.3342 182.048 76.6622 182.48C76.0062 182.896 75.6782 183.472 75.6782 184.208C75.6782 184.608 75.7822 185 75.9902 185.384C76.2142 185.752 76.5342 186.056 76.9502 186.296C77.3822 186.536 77.9102 186.656 78.5342 186.656C79.1902 186.656 79.8142 186.528 80.4062 186.272C80.9982 186 81.4702 185.664 81.8222 185.264ZM94.7593 177.32C93.7033 177.336 92.7673 177.608 91.9513 178.136C91.1513 178.648 90.5833 179.36 90.2473 180.272V188H88.1353V175.472H90.1033V178.376C90.5353 177.512 91.1033 176.816 91.8073 176.288C92.5273 175.744 93.2793 175.44 94.0633 175.376C94.2233 175.376 94.3593 175.376 94.4713 175.376C94.5833 175.376 94.6793 175.384 94.7593 175.4V177.32ZM102.293 188.24C101.349 188.24 100.485 188.072 99.7013 187.736C98.9333 187.384 98.2613 186.912 97.6853 186.32C97.1253 185.712 96.6853 185.016 96.3653 184.232C96.0613 183.448 95.9093 182.616 95.9093 181.736C95.9093 180.552 96.1813 179.472 96.7253 178.496C97.2693 177.52 98.0213 176.736 98.9813 176.144C99.9573 175.552 101.069 175.256 102.317 175.256C103.581 175.256 104.677 175.56 105.605 176.168C106.549 176.76 107.277 177.544 107.789 178.52C108.317 179.48 108.581 180.52 108.581 181.64C108.581 181.8 108.573 181.96 108.557 182.12C108.557 182.264 108.549 182.376 108.533 182.456H98.1413C98.2053 183.272 98.4293 184 98.8133 184.64C99.2133 185.264 99.7253 185.76 100.349 186.128C100.973 186.48 101.645 186.656 102.365 186.656C103.133 186.656 103.853 186.464 104.525 186.08C105.213 185.696 105.685 185.192 105.941 184.568L107.765 185.072C107.493 185.68 107.085 186.224 106.541 186.704C106.013 187.184 105.381 187.56 104.645 187.832C103.925 188.104 103.141 188.24 102.293 188.24ZM98.0693 180.992H106.613C106.549 180.176 106.317 179.456 105.917 178.832C105.517 178.208 105.005 177.72 104.381 177.368C103.757 177.016 103.069 176.84 102.317 176.84C101.581 176.84 100.901 177.016 100.277 177.368C99.6533 177.72 99.1413 178.208 98.7413 178.832C98.3573 179.456 98.1333 180.176 98.0693 180.992ZM136.287 188H134.175V180.992C134.175 179.68 133.959 178.712 133.527 178.088C133.111 177.464 132.487 177.152 131.655 177.152C130.807 177.152 130.039 177.464 129.351 178.088C128.663 178.696 128.175 179.488 127.887 180.464V188H125.775V180.992C125.775 179.664 125.567 178.696 125.151 178.088C124.735 177.464 124.111 177.152 123.279 177.152C122.447 177.152 121.679 177.456 120.975 178.064C120.287 178.656 119.799 179.448 119.511 180.44V188H117.399V175.472H119.319V178.16C119.831 177.232 120.495 176.52 121.311 176.024C122.127 175.512 123.047 175.256 124.071 175.256C125.111 175.256 125.943 175.544 126.567 176.12C127.191 176.68 127.575 177.408 127.719 178.304C128.279 177.312 128.959 176.56 129.759 176.048C130.559 175.52 131.471 175.256 132.495 175.256C133.215 175.256 133.815 175.392 134.295 175.664C134.791 175.92 135.183 176.288 135.471 176.768C135.759 177.232 135.967 177.784 136.095 178.424C136.223 179.064 136.287 179.76 136.287 180.512V188ZM145.243 188.24C144.299 188.24 143.443 188.072 142.675 187.736C141.907 187.384 141.243 186.912 140.683 186.32C140.123 185.712 139.691 185.016 139.387 184.232C139.083 183.448 138.931 182.624 138.931 181.76C138.931 180.88 139.083 180.048 139.387 179.264C139.691 178.48 140.123 177.792 140.683 177.2C141.243 176.592 141.907 176.12 142.675 175.784C143.459 175.432 144.315 175.256 145.243 175.256C146.187 175.256 147.043 175.432 147.811 175.784C148.579 176.12 149.243 176.592 149.803 177.2C150.379 177.792 150.819 178.48 151.123 179.264C151.427 180.048 151.579 180.88 151.579 181.76C151.579 182.624 151.427 183.448 151.123 184.232C150.819 185.016 150.387 185.712 149.827 186.32C149.267 186.912 148.595 187.384 147.811 187.736C147.043 188.072 146.187 188.24 145.243 188.24ZM141.091 181.784C141.091 182.648 141.275 183.432 141.643 184.136C142.027 184.84 142.531 185.4 143.155 185.816C143.779 186.216 144.475 186.416 145.243 186.416C146.011 186.416 146.707 186.208 147.331 185.792C147.971 185.376 148.475 184.816 148.843 184.112C149.227 183.392 149.419 182.6 149.419 181.736C149.419 180.872 149.227 180.088 148.843 179.384C148.475 178.68 147.971 178.12 147.331 177.704C146.707 177.288 146.011 177.08 145.243 177.08C144.475 177.08 143.779 177.296 143.155 177.728C142.531 178.144 142.027 178.704 141.643 179.408C141.275 180.112 141.091 180.904 141.091 181.784ZM160.962 177.32C159.906 177.336 158.97 177.608 158.154 178.136C157.354 178.648 156.786 179.36 156.45 180.272V188H154.338V175.472H156.306V178.376C156.738 177.512 157.306 176.816 158.01 176.288C158.73 175.744 159.482 175.44 160.266 175.376C160.426 175.376 160.562 175.376 160.674 175.376C160.786 175.376 160.882 175.384 160.962 175.4V177.32ZM168.496 188.24C167.552 188.24 166.688 188.072 165.904 187.736C165.136 187.384 164.464 186.912 163.888 186.32C163.328 185.712 162.888 185.016 162.568 184.232C162.264 183.448 162.112 182.616 162.112 181.736C162.112 180.552 162.384 179.472 162.928 178.496C163.472 177.52 164.224 176.736 165.184 176.144C166.16 175.552 167.272 175.256 168.52 175.256C169.784 175.256 170.88 175.56 171.808 176.168C172.752 176.76 173.48 177.544 173.992 178.52C174.52 179.48 174.784 180.52 174.784 181.64C174.784 181.8 174.776 181.96 174.76 182.12C174.76 182.264 174.752 182.376 174.736 182.456H164.344C164.408 183.272 164.632 184 165.016 184.64C165.416 185.264 165.928 185.76 166.552 186.128C167.176 186.48 167.848 186.656 168.568 186.656C169.336 186.656 170.056 186.464 170.728 186.08C171.416 185.696 171.888 185.192 172.144 184.568L173.968 185.072C173.696 185.68 173.288 186.224 172.744 186.704C172.216 187.184 171.584 187.56 170.848 187.832C170.128 188.104 169.344 188.24 168.496 188.24ZM164.272 180.992H172.816C172.752 180.176 172.52 179.456 172.12 178.832C171.72 178.208 171.208 177.72 170.584 177.368C169.96 177.016 169.272 176.84 168.52 176.84C167.784 176.84 167.104 177.016 166.48 177.368C165.856 177.72 165.344 178.208 164.944 178.832C164.56 179.456 164.336 180.176 164.272 180.992ZM190.082 187.376C189.906 187.456 189.666 187.56 189.362 187.688C189.058 187.816 188.706 187.928 188.306 188.024C187.906 188.12 187.482 188.168 187.034 188.168C186.522 188.168 186.05 188.08 185.618 187.904C185.186 187.712 184.842 187.424 184.586 187.04C184.33 186.64 184.202 186.144 184.202 185.552V177.128H182.498V175.472H184.202V171.296H186.314V175.472H189.122V177.128H186.314V184.904C186.346 185.352 186.498 185.688 186.77 185.912C187.042 186.12 187.362 186.224 187.73 186.224C188.146 186.224 188.53 186.152 188.882 186.008C189.234 185.864 189.466 185.76 189.578 185.696L190.082 187.376ZM203.112 188H201V180.992C201 179.712 200.768 178.752 200.304 178.112C199.856 177.472 199.208 177.152 198.36 177.152C197.816 177.152 197.264 177.296 196.704 177.584C196.16 177.872 195.68 178.264 195.264 178.76C194.848 179.24 194.544 179.8 194.352 180.44V188H192.24V170.48H194.352V178.16C194.848 177.264 195.52 176.56 196.368 176.048C197.232 175.52 198.16 175.256 199.152 175.256C199.904 175.256 200.528 175.392 201.024 175.664C201.536 175.92 201.944 176.288 202.248 176.768C202.552 177.248 202.768 177.808 202.896 178.448C203.04 179.072 203.112 179.76 203.112 180.512V188ZM205.612 184.376C205.612 183.576 205.836 182.888 206.284 182.312C206.748 181.72 207.38 181.264 208.18 180.944C208.98 180.624 209.908 180.464 210.964 180.464C211.524 180.464 212.116 180.512 212.74 180.608C213.364 180.688 213.916 180.816 214.396 180.992V180.08C214.396 179.12 214.108 178.368 213.532 177.824C212.956 177.264 212.14 176.984 211.084 176.984C210.396 176.984 209.732 177.112 209.092 177.368C208.468 177.608 207.804 177.96 207.1 178.424L206.332 176.936C207.148 176.376 207.964 175.96 208.78 175.688C209.596 175.4 210.444 175.256 211.324 175.256C212.924 175.256 214.188 175.704 215.116 176.6C216.044 177.48 216.508 178.712 216.508 180.296V185.6C216.508 185.856 216.556 186.048 216.652 186.176C216.764 186.288 216.94 186.352 217.18 186.368V188C216.972 188.032 216.788 188.056 216.628 188.072C216.484 188.088 216.364 188.096 216.268 188.096C215.772 188.096 215.396 187.96 215.14 187.688C214.9 187.416 214.764 187.128 214.732 186.824L214.684 186.032C214.14 186.736 213.428 187.28 212.548 187.664C211.668 188.048 210.796 188.24 209.932 188.24C209.1 188.24 208.356 188.072 207.7 187.736C207.044 187.384 206.532 186.92 206.164 186.344C205.796 185.752 205.612 185.096 205.612 184.376ZM213.772 185.264C213.964 185.04 214.116 184.816 214.228 184.592C214.34 184.352 214.396 184.152 214.396 183.992V182.432C213.9 182.24 213.38 182.096 212.836 182C212.292 181.888 211.756 181.832 211.228 181.832C210.156 181.832 209.284 182.048 208.612 182.48C207.956 182.896 207.628 183.472 207.628 184.208C207.628 184.608 207.732 185 207.94 185.384C208.164 185.752 208.484 186.056 208.9 186.296C209.332 186.536 209.86 186.656 210.484 186.656C211.14 186.656 211.764 186.528 212.356 186.272C212.948 186 213.42 185.664 213.772 185.264ZM230.957 188H228.845V180.992C228.845 179.664 228.637 178.696 228.221 178.088C227.821 177.464 227.205 177.152 226.373 177.152C225.797 177.152 225.221 177.296 224.645 177.584C224.085 177.872 223.581 178.264 223.133 178.76C222.701 179.24 222.389 179.8 222.197 180.44V188H220.085V175.472H222.005V178.16C222.341 177.568 222.773 177.056 223.301 176.624C223.829 176.192 224.429 175.856 225.101 175.616C225.773 175.376 226.477 175.256 227.213 175.256C227.933 175.256 228.533 175.392 229.013 175.664C229.509 175.92 229.893 176.288 230.165 176.768C230.453 177.232 230.653 177.784 230.765 178.424C230.893 179.064 230.957 179.76 230.957 180.512V188ZM239.872 180.176C239.872 181.248 240.128 182.216 240.64 183.08C241.168 183.944 241.88 184.632 242.776 185.144C243.672 185.656 244.664 185.912 245.752 185.912C246.424 185.912 247.048 185.8 247.624 185.576C248.2 185.352 248.704 185.032 249.136 184.616C249.584 184.2 249.92 183.72 250.144 183.176C250.128 184.584 249.936 185.784 249.568 186.776C249.216 187.768 248.712 188.528 248.056 189.056C247.416 189.584 246.656 189.848 245.776 189.848C244.944 189.848 244.176 189.624 243.472 189.176C242.784 188.728 242.264 188.136 241.912 187.4L240.616 188.672C241.128 189.616 241.832 190.352 242.728 190.88C243.64 191.424 244.648 191.696 245.752 191.696C247.032 191.696 248.152 191.32 249.112 190.568C250.072 189.832 250.816 188.72 251.344 187.232C251.872 185.744 252.136 183.88 252.136 181.64C252.136 180.104 251.872 178.792 251.344 177.704C250.832 176.6 250.112 175.76 249.184 175.184C248.272 174.592 247.2 174.296 245.968 174.296C244.832 174.296 243.8 174.56 242.872 175.088C241.944 175.616 241.208 176.328 240.664 177.224C240.136 178.104 239.872 179.088 239.872 180.176ZM245.944 176.12C246.68 176.12 247.352 176.304 247.96 176.672C248.584 177.04 249.08 177.536 249.448 178.16C249.816 178.768 250 179.44 250 180.176C250 180.912 249.816 181.584 249.448 182.192C249.08 182.8 248.592 183.288 247.984 183.656C247.376 184.024 246.696 184.208 245.944 184.208C245.208 184.208 244.528 184.024 243.904 183.656C243.296 183.288 242.808 182.8 242.44 182.192C242.072 181.584 241.888 180.912 241.888 180.176C241.888 179.424 242.072 178.744 242.44 178.136C242.808 177.528 243.296 177.04 243.904 176.672C244.528 176.304 245.208 176.12 245.944 176.12ZM266.781 180.968C266.781 182.376 266.517 183.632 265.989 184.736C265.461 185.824 264.741 186.68 263.829 187.304C262.917 187.928 261.877 188.24 260.709 188.24C259.541 188.24 258.501 187.928 257.589 187.304C256.677 186.68 255.957 185.824 255.429 184.736C254.901 183.632 254.637 182.376 254.637 180.968C254.637 179.56 254.901 178.312 255.429 177.224C255.957 176.12 256.677 175.256 257.589 174.632C258.501 173.992 259.541 173.672 260.709 173.672C261.877 173.672 262.917 173.992 263.829 174.632C264.741 175.256 265.461 176.12 265.989 177.224C266.517 178.312 266.781 179.56 266.781 180.968ZM264.645 180.968C264.645 179.912 264.477 178.984 264.141 178.184C263.805 177.384 263.341 176.76 262.749 176.312C262.157 175.864 261.477 175.64 260.709 175.64C259.925 175.64 259.237 175.864 258.645 176.312C258.053 176.76 257.589 177.384 257.253 178.184C256.917 178.984 256.749 179.912 256.749 180.968C256.749 182.024 256.917 182.952 257.253 183.752C257.589 184.536 258.053 185.152 258.645 185.6C259.237 186.048 259.925 186.272 260.709 186.272C261.477 186.272 262.157 186.048 262.749 185.6C263.341 185.152 263.805 184.536 264.141 183.752C264.477 182.952 264.645 182.024 264.645 180.968ZM281.723 180.968C281.723 182.376 281.459 183.632 280.931 184.736C280.403 185.824 279.683 186.68 278.771 187.304C277.859 187.928 276.819 188.24 275.651 188.24C274.483 188.24 273.443 187.928 272.531 187.304C271.619 186.68 270.899 185.824 270.371 184.736C269.843 183.632 269.579 182.376 269.579 180.968C269.579 179.56 269.843 178.312 270.371 177.224C270.899 176.12 271.619 175.256 272.531 174.632C273.443 173.992 274.483 173.672 275.651 173.672C276.819 173.672 277.859 173.992 278.771 174.632C279.683 175.256 280.403 176.12 280.931 177.224C281.459 178.312 281.723 179.56 281.723 180.968ZM279.587 180.968C279.587 179.912 279.419 178.984 279.083 178.184C278.747 177.384 278.283 176.76 277.691 176.312C277.099 175.864 276.419 175.64 275.651 175.64C274.867 175.64 274.179 175.864 273.587 176.312C272.995 176.76 272.531 177.384 272.195 178.184C271.859 178.984 271.691 179.912 271.691 180.968C271.691 182.024 271.859 182.952 272.195 183.752C272.531 184.536 272.995 185.152 273.587 185.6C274.179 186.048 274.867 186.272 275.651 186.272C276.419 186.272 277.099 186.048 277.691 185.6C278.283 185.152 278.747 184.536 279.083 183.752C279.419 182.952 279.587 182.024 279.587 180.968ZM292.009 178.616V180.344H289.177V183.416H287.257V180.344H284.425V178.616H287.257V175.544H289.177V178.616H292.009ZM306.928 188.24C305.984 188.24 305.12 188.072 304.336 187.736C303.568 187.384 302.896 186.904 302.32 186.296C301.76 185.688 301.32 184.992 301 184.208C300.696 183.424 300.544 182.592 300.544 181.712C300.544 180.528 300.808 179.448 301.336 178.472C301.864 177.496 302.608 176.72 303.568 176.144C304.528 175.552 305.64 175.256 306.904 175.256C308.136 175.256 309.208 175.536 310.12 176.096C311.048 176.64 311.736 177.376 312.184 178.304L310.12 178.952C309.8 178.36 309.352 177.904 308.776 177.584C308.2 177.248 307.56 177.08 306.856 177.08C306.088 177.08 305.384 177.28 304.744 177.68C304.12 178.08 303.624 178.632 303.256 179.336C302.888 180.024 302.704 180.816 302.704 181.712C302.704 182.592 302.888 183.392 303.256 184.112C303.64 184.816 304.144 185.376 304.768 185.792C305.408 186.208 306.112 186.416 306.88 186.416C307.376 186.416 307.848 186.328 308.296 186.152C308.76 185.976 309.16 185.744 309.496 185.456C309.848 185.152 310.088 184.824 310.216 184.472L312.28 185.096C312.024 185.704 311.632 186.248 311.104 186.728C310.592 187.192 309.976 187.56 309.256 187.832C308.552 188.104 307.776 188.24 306.928 188.24ZM313.889 184.376C313.889 183.576 314.113 182.888 314.561 182.312C315.025 181.72 315.657 181.264 316.457 180.944C317.257 180.624 318.185 180.464 319.241 180.464C319.801 180.464 320.393 180.512 321.017 180.608C321.641 180.688 322.193 180.816 322.673 180.992V180.08C322.673 179.12 322.385 178.368 321.809 177.824C321.233 177.264 320.417 176.984 319.361 176.984C318.673 176.984 318.009 177.112 317.369 177.368C316.745 177.608 316.081 177.96 315.377 178.424L314.609 176.936C315.425 176.376 316.241 175.96 317.057 175.688C317.873 175.4 318.721 175.256 319.601 175.256C321.201 175.256 322.465 175.704 323.393 176.6C324.321 177.48 324.785 178.712 324.785 180.296V185.6C324.785 185.856 324.833 186.048 324.929 186.176C325.041 186.288 325.217 186.352 325.457 186.368V188C325.249 188.032 325.065 188.056 324.905 188.072C324.761 188.088 324.641 188.096 324.545 188.096C324.049 188.096 323.673 187.96 323.417 187.688C323.177 187.416 323.041 187.128 323.009 186.824L322.961 186.032C322.417 186.736 321.705 187.28 320.825 187.664C319.945 188.048 319.073 188.24 318.209 188.24C317.377 188.24 316.633 188.072 315.977 187.736C315.321 187.384 314.809 186.92 314.441 186.344C314.073 185.752 313.889 185.096 313.889 184.376ZM322.049 185.264C322.241 185.04 322.393 184.816 322.505 184.592C322.617 184.352 322.673 184.152 322.673 183.992V182.432C322.177 182.24 321.657 182.096 321.113 182C320.569 181.888 320.033 181.832 319.505 181.832C318.433 181.832 317.561 182.048 316.889 182.48C316.233 182.896 315.905 183.472 315.905 184.208C315.905 184.608 316.009 185 316.217 185.384C316.441 185.752 316.761 186.056 317.177 186.296C317.609 186.536 318.137 186.656 318.761 186.656C319.417 186.656 320.041 186.528 320.633 186.272C321.225 186 321.697 185.664 322.049 185.264ZM334.748 187.376C334.572 187.456 334.332 187.56 334.028 187.688C333.724 187.816 333.372 187.928 332.972 188.024C332.572 188.12 332.148 188.168 331.7 188.168C331.188 188.168 330.716 188.08 330.284 187.904C329.852 187.712 329.508 187.424 329.252 187.04C328.996 186.64 328.868 186.144 328.868 185.552V177.128H327.164V175.472H328.868V171.296H330.98V175.472H333.788V177.128H330.98V184.904C331.012 185.352 331.164 185.688 331.436 185.912C331.708 186.12 332.028 186.224 332.396 186.224C332.812 186.224 333.196 186.152 333.548 186.008C333.9 185.864 334.132 185.76 334.244 185.696L334.748 187.376ZM342.286 188.24C341.342 188.24 340.478 188.072 339.694 187.736C338.926 187.384 338.254 186.912 337.678 186.32C337.118 185.712 336.678 185.016 336.358 184.232C336.054 183.448 335.902 182.616 335.902 181.736C335.902 180.552 336.174 179.472 336.718 178.496C337.262 177.52 338.014 176.736 338.974 176.144C339.95 175.552 341.062 175.256 342.31 175.256C343.574 175.256 344.67 175.56 345.598 176.168C346.542 176.76 347.27 177.544 347.782 178.52C348.31 179.48 348.574 180.52 348.574 181.64C348.574 181.8 348.566 181.96 348.55 182.12C348.55 182.264 348.542 182.376 348.526 182.456H338.134C338.198 183.272 338.422 184 338.806 184.64C339.206 185.264 339.718 185.76 340.342 186.128C340.966 186.48 341.638 186.656 342.358 186.656C343.126 186.656 343.846 186.464 344.518 186.08C345.206 185.696 345.678 185.192 345.934 184.568L347.758 185.072C347.486 185.68 347.078 186.224 346.534 186.704C346.006 187.184 345.374 187.56 344.638 187.832C343.918 188.104 343.134 188.24 342.286 188.24ZM338.062 180.992H346.606C346.542 180.176 346.31 179.456 345.91 178.832C345.51 178.208 344.998 177.72 344.374 177.368C343.75 177.016 343.062 176.84 342.31 176.84C341.574 176.84 340.894 177.016 340.27 177.368C339.646 177.72 339.134 178.208 338.734 178.832C338.35 179.456 338.126 180.176 338.062 180.992ZM356.113 188.144C355.265 188.144 354.481 187.976 353.761 187.64C353.057 187.288 352.449 186.816 351.937 186.224C351.425 185.616 351.025 184.928 350.737 184.16C350.465 183.392 350.329 182.592 350.329 181.76C350.329 180.88 350.465 180.048 350.737 179.264C351.025 178.48 351.425 177.792 351.937 177.2C352.465 176.592 353.081 176.12 353.785 175.784C354.489 175.432 355.273 175.256 356.137 175.256C357.177 175.256 358.081 175.512 358.849 176.024C359.633 176.536 360.289 177.184 360.817 177.968V175.472H362.689V187.856C362.689 189.04 362.401 190.04 361.825 190.856C361.265 191.672 360.497 192.288 359.521 192.704C358.561 193.136 357.489 193.352 356.305 193.352C354.897 193.352 353.745 193.104 352.849 192.608C351.953 192.112 351.209 191.44 350.617 190.592L351.841 189.512C352.337 190.248 352.977 190.8 353.761 191.168C354.561 191.536 355.409 191.72 356.305 191.72C357.073 191.72 357.777 191.576 358.417 191.288C359.073 191.016 359.593 190.592 359.977 190.016C360.377 189.44 360.577 188.72 360.577 187.856V185.648C360.113 186.416 359.473 187.024 358.657 187.472C357.857 187.92 357.009 188.144 356.113 188.144ZM356.761 186.416C357.209 186.416 357.641 186.336 358.057 186.176C358.473 186.016 358.857 185.808 359.209 185.552C359.561 185.28 359.857 184.976 360.097 184.64C360.337 184.304 360.497 183.96 360.577 183.608V180.008C360.353 179.432 360.033 178.928 359.617 178.496C359.201 178.048 358.729 177.704 358.201 177.464C357.673 177.208 357.129 177.08 356.569 177.08C355.929 177.08 355.353 177.216 354.841 177.488C354.345 177.76 353.921 178.128 353.569 178.592C353.217 179.04 352.945 179.544 352.753 180.104C352.561 180.664 352.465 181.232 352.465 181.808C352.465 182.432 352.577 183.024 352.801 183.584C353.025 184.128 353.329 184.616 353.713 185.048C354.097 185.48 354.553 185.816 355.081 186.056C355.609 186.296 356.169 186.416 356.761 186.416ZM371.77 188.24C370.826 188.24 369.97 188.072 369.202 187.736C368.434 187.384 367.77 186.912 367.21 186.32C366.65 185.712 366.218 185.016 365.914 184.232C365.61 183.448 365.458 182.624 365.458 181.76C365.458 180.88 365.61 180.048 365.914 179.264C366.218 178.48 366.65 177.792 367.21 177.2C367.77 176.592 368.434 176.12 369.202 175.784C369.986 175.432 370.842 175.256 371.77 175.256C372.714 175.256 373.57 175.432 374.338 175.784C375.106 176.12 375.77 176.592 376.33 177.2C376.906 177.792 377.346 178.48 377.65 179.264C377.954 180.048 378.106 180.88 378.106 181.76C378.106 182.624 377.954 183.448 377.65 184.232C377.346 185.016 376.914 185.712 376.354 186.32C375.794 186.912 375.122 187.384 374.338 187.736C373.57 188.072 372.714 188.24 371.77 188.24ZM367.618 181.784C367.618 182.648 367.802 183.432 368.17 184.136C368.554 184.84 369.058 185.4 369.682 185.816C370.306 186.216 371.002 186.416 371.77 186.416C372.538 186.416 373.234 186.208 373.858 185.792C374.498 185.376 375.002 184.816 375.37 184.112C375.754 183.392 375.946 182.6 375.946 181.736C375.946 180.872 375.754 180.088 375.37 179.384C375.002 178.68 374.498 178.12 373.858 177.704C373.234 177.288 372.538 177.08 371.77 177.08C371.002 177.08 370.306 177.296 369.682 177.728C369.058 178.144 368.554 178.704 368.17 179.408C367.802 180.112 367.618 180.904 367.618 181.784ZM387.489 177.32C386.433 177.336 385.497 177.608 384.681 178.136C383.881 178.648 383.313 179.36 382.977 180.272V188H380.865V175.472H382.833V178.376C383.265 177.512 383.833 176.816 384.537 176.288C385.257 175.744 386.009 175.44 386.793 175.376C386.953 175.376 387.089 175.376 387.201 175.376C387.313 175.376 387.409 175.384 387.489 175.4V177.32ZM389.784 188V175.472H391.896V188H389.784ZM389.784 173.12V170.48H391.896V173.12H389.784ZM401.059 188.24C400.115 188.24 399.251 188.072 398.467 187.736C397.699 187.384 397.027 186.912 396.451 186.32C395.891 185.712 395.451 185.016 395.131 184.232C394.827 183.448 394.675 182.616 394.675 181.736C394.675 180.552 394.947 179.472 395.491 178.496C396.035 177.52 396.787 176.736 397.747 176.144C398.723 175.552 399.835 175.256 401.083 175.256C402.347 175.256 403.443 175.56 404.371 176.168C405.315 176.76 406.043 177.544 406.555 178.52C407.083 179.48 407.347 180.52 407.347 181.64C407.347 181.8 407.339 181.96 407.323 182.12C407.323 182.264 407.315 182.376 407.299 182.456H396.907C396.971 183.272 397.195 184 397.579 184.64C397.979 185.264 398.491 185.76 399.115 186.128C399.739 186.48 400.411 186.656 401.131 186.656C401.899 186.656 402.619 186.464 403.291 186.08C403.979 185.696 404.451 185.192 404.707 184.568L406.531 185.072C406.259 185.68 405.851 186.224 405.307 186.704C404.779 187.184 404.147 187.56 403.411 187.832C402.691 188.104 401.907 188.24 401.059 188.24ZM396.835 180.992H405.379C405.315 180.176 405.083 179.456 404.683 178.832C404.283 178.208 403.771 177.72 403.147 177.368C402.523 177.016 401.835 176.84 401.083 176.84C400.347 176.84 399.667 177.016 399.043 177.368C398.419 177.72 397.907 178.208 397.507 178.832C397.123 179.456 396.899 180.176 396.835 180.992ZM414.191 188.24C413.151 188.24 412.175 188.072 411.263 187.736C410.351 187.384 409.567 186.864 408.911 186.176L409.727 184.688C410.447 185.36 411.167 185.84 411.887 186.128C412.607 186.416 413.343 186.56 414.095 186.56C414.959 186.56 415.663 186.4 416.207 186.08C416.751 185.744 417.023 185.256 417.023 184.616C417.023 184.152 416.879 183.808 416.591 183.584C416.319 183.36 415.927 183.176 415.415 183.032C414.903 182.872 414.295 182.696 413.591 182.504C412.727 182.248 411.999 181.976 411.407 181.688C410.815 181.4 410.367 181.04 410.063 180.608C409.759 180.176 409.607 179.632 409.607 178.976C409.607 178.176 409.815 177.504 410.231 176.96C410.647 176.4 411.215 175.976 411.935 175.688C412.671 175.4 413.503 175.256 414.431 175.256C415.359 175.256 416.199 175.4 416.951 175.688C417.703 175.976 418.351 176.4 418.895 176.96L417.935 178.424C417.439 177.912 416.895 177.536 416.303 177.296C415.711 177.04 415.047 176.912 414.311 176.912C413.879 176.912 413.455 176.968 413.039 177.08C412.623 177.176 412.279 177.36 412.007 177.632C411.735 177.888 411.599 178.256 411.599 178.736C411.599 179.136 411.703 179.456 411.911 179.696C412.135 179.92 412.455 180.112 412.871 180.272C413.303 180.432 413.823 180.608 414.431 180.8C415.375 181.072 416.191 181.344 416.879 181.616C417.583 181.888 418.127 182.24 418.511 182.672C418.895 183.104 419.087 183.704 419.087 184.472C419.087 185.656 418.639 186.584 417.743 187.256C416.847 187.912 415.663 188.24 414.191 188.24ZM427.964 182.984V175.472H430.076V182.576C430.076 183.856 430.3 184.816 430.748 185.456C431.196 186.096 431.86 186.416 432.74 186.416C433.316 186.416 433.868 186.296 434.396 186.056C434.94 185.8 435.428 185.44 435.86 184.976C436.292 184.512 436.628 183.96 436.868 183.32V175.472H438.98V185.6C438.98 185.856 439.028 186.048 439.124 186.176C439.236 186.288 439.412 186.352 439.652 186.368V188C439.412 188.032 439.22 188.048 439.076 188.048C438.948 188.064 438.82 188.072 438.692 188.072C438.292 188.072 437.948 187.952 437.66 187.712C437.372 187.456 437.22 187.144 437.204 186.776L437.156 185.312C436.612 186.24 435.876 186.96 434.948 187.472C434.036 187.984 433.036 188.24 431.948 188.24C430.636 188.24 429.644 187.8 428.972 186.92C428.3 186.024 427.964 184.712 427.964 182.984ZM449.442 188.24C448.418 188.24 447.506 187.984 446.706 187.472C445.906 186.96 445.274 186.312 444.81 185.528V193.112H442.698V175.472H444.57V177.824C445.066 177.056 445.714 176.44 446.514 175.976C447.314 175.496 448.186 175.256 449.13 175.256C449.994 175.256 450.786 175.432 451.506 175.784C452.226 176.136 452.85 176.616 453.378 177.224C453.906 177.832 454.314 178.528 454.602 179.312C454.906 180.08 455.058 180.888 455.058 181.736C455.058 182.92 454.818 184.008 454.338 185C453.874 185.992 453.218 186.784 452.37 187.376C451.522 187.952 450.546 188.24 449.442 188.24ZM448.794 186.416C449.418 186.416 449.978 186.288 450.474 186.032C450.986 185.76 451.418 185.408 451.77 184.976C452.138 184.528 452.418 184.024 452.61 183.464C452.802 182.904 452.898 182.328 452.898 181.736C452.898 181.112 452.786 180.52 452.562 179.96C452.354 179.4 452.05 178.904 451.65 178.472C451.266 178.04 450.81 177.704 450.282 177.464C449.77 177.208 449.21 177.08 448.602 177.08C448.218 177.08 447.818 177.152 447.402 177.296C447.002 177.44 446.618 177.648 446.25 177.92C445.882 178.176 445.57 178.472 445.314 178.808C445.058 179.144 444.89 179.504 444.81 179.888V183.464C445.05 184.008 445.37 184.504 445.77 184.952C446.17 185.4 446.634 185.76 447.162 186.032C447.69 186.288 448.234 186.416 448.794 186.416ZM457.035 181.76C457.035 180.576 457.275 179.496 457.755 178.52C458.251 177.528 458.923 176.736 459.771 176.144C460.635 175.552 461.619 175.256 462.723 175.256C463.731 175.256 464.635 175.52 465.435 176.048C466.235 176.576 466.859 177.216 467.307 177.968V170.48H469.419V185.6C469.419 185.856 469.467 186.048 469.563 186.176C469.675 186.288 469.851 186.352 470.091 186.368V188C469.691 188.064 469.379 188.096 469.155 188.096C468.739 188.096 468.371 187.952 468.051 187.664C467.747 187.376 467.595 187.056 467.595 186.704V185.648C467.099 186.448 466.435 187.08 465.603 187.544C464.771 188.008 463.907 188.24 463.011 188.24C462.147 188.24 461.347 188.072 460.611 187.736C459.891 187.384 459.259 186.904 458.715 186.296C458.187 185.688 457.771 185 457.467 184.232C457.179 183.448 457.035 182.624 457.035 181.76ZM467.307 183.608V180.008C467.115 179.464 466.803 178.976 466.371 178.544C465.939 178.096 465.451 177.744 464.907 177.488C464.379 177.216 463.851 177.08 463.323 177.08C462.699 177.08 462.131 177.216 461.619 177.488C461.123 177.744 460.691 178.096 460.323 178.544C459.971 178.976 459.699 179.472 459.507 180.032C459.315 180.592 459.219 181.176 459.219 181.784C459.219 182.408 459.323 183 459.531 183.56C459.755 184.12 460.059 184.616 460.443 185.048C460.843 185.48 461.299 185.816 461.811 186.056C462.339 186.296 462.907 186.416 463.515 186.416C463.899 186.416 464.291 186.344 464.691 186.2C465.107 186.056 465.499 185.856 465.867 185.6C466.235 185.344 466.547 185.048 466.803 184.712C467.059 184.36 467.227 183.992 467.307 183.608ZM472.161 184.376C472.161 183.576 472.385 182.888 472.833 182.312C473.297 181.72 473.929 181.264 474.729 180.944C475.529 180.624 476.457 180.464 477.513 180.464C478.073 180.464 478.665 180.512 479.289 180.608C479.913 180.688 480.465 180.816 480.945 180.992V180.08C480.945 179.12 480.657 178.368 480.081 177.824C479.505 177.264 478.689 176.984 477.633 176.984C476.945 176.984 476.281 177.112 475.641 177.368C475.017 177.608 474.353 177.96 473.649 178.424L472.881 176.936C473.697 176.376 474.513 175.96 475.329 175.688C476.145 175.4 476.993 175.256 477.873 175.256C479.473 175.256 480.737 175.704 481.665 176.6C482.593 177.48 483.057 178.712 483.057 180.296V185.6C483.057 185.856 483.105 186.048 483.201 186.176C483.313 186.288 483.489 186.352 483.729 186.368V188C483.521 188.032 483.337 188.056 483.177 188.072C483.033 188.088 482.913 188.096 482.817 188.096C482.321 188.096 481.945 187.96 481.689 187.688C481.449 187.416 481.313 187.128 481.281 186.824L481.233 186.032C480.689 186.736 479.977 187.28 479.097 187.664C478.217 188.048 477.345 188.24 476.481 188.24C475.649 188.24 474.905 188.072 474.249 187.736C473.593 187.384 473.081 186.92 472.713 186.344C472.345 185.752 472.161 185.096 472.161 184.376ZM480.321 185.264C480.513 185.04 480.665 184.816 480.777 184.592C480.889 184.352 480.945 184.152 480.945 183.992V182.432C480.449 182.24 479.929 182.096 479.385 182C478.841 181.888 478.305 181.832 477.777 181.832C476.705 181.832 475.833 182.048 475.161 182.48C474.505 182.896 474.177 183.472 474.177 184.208C474.177 184.608 474.281 185 474.489 185.384C474.713 185.752 475.033 186.056 475.449 186.296C475.881 186.536 476.409 186.656 477.033 186.656C477.689 186.656 478.313 186.528 478.905 186.272C479.497 186 479.969 185.664 480.321 185.264ZM493.02 187.376C492.844 187.456 492.604 187.56 492.3 187.688C491.996 187.816 491.644 187.928 491.244 188.024C490.844 188.12 490.42 188.168 489.972 188.168C489.46 188.168 488.988 188.08 488.556 187.904C488.124 187.712 487.78 187.424 487.524 187.04C487.268 186.64 487.14 186.144 487.14 185.552V177.128H485.436V175.472H487.14V171.296H489.252V175.472H492.06V177.128H489.252V184.904C489.284 185.352 489.436 185.688 489.708 185.912C489.98 186.12 490.3 186.224 490.668 186.224C491.084 186.224 491.468 186.152 491.82 186.008C492.172 185.864 492.404 185.76 492.516 185.696L493.02 187.376ZM500.557 188.24C499.613 188.24 498.749 188.072 497.965 187.736C497.197 187.384 496.525 186.912 495.949 186.32C495.389 185.712 494.949 185.016 494.629 184.232C494.325 183.448 494.173 182.616 494.173 181.736C494.173 180.552 494.445 179.472 494.989 178.496C495.533 177.52 496.285 176.736 497.245 176.144C498.221 175.552 499.333 175.256 500.581 175.256C501.845 175.256 502.941 175.56 503.869 176.168C504.813 176.76 505.541 177.544 506.053 178.52C506.581 179.48 506.845 180.52 506.845 181.64C506.845 181.8 506.837 181.96 506.821 182.12C506.821 182.264 506.813 182.376 506.797 182.456H496.405C496.469 183.272 496.693 184 497.077 184.64C497.477 185.264 497.989 185.76 498.613 186.128C499.237 186.48 499.909 186.656 500.629 186.656C501.397 186.656 502.117 186.464 502.789 186.08C503.477 185.696 503.949 185.192 504.205 184.568L506.029 185.072C505.757 185.68 505.349 186.224 504.805 186.704C504.277 187.184 503.645 187.56 502.909 187.832C502.189 188.104 501.405 188.24 500.557 188.24ZM496.333 180.992H504.877C504.813 180.176 504.581 179.456 504.181 178.832C503.781 178.208 503.269 177.72 502.645 177.368C502.021 177.016 501.333 176.84 500.581 176.84C499.845 176.84 499.165 177.016 498.541 177.368C497.917 177.72 497.405 178.208 497.005 178.832C496.621 179.456 496.397 180.176 496.333 180.992ZM508.577 181.76C508.577 180.576 508.817 179.496 509.297 178.52C509.793 177.528 510.465 176.736 511.313 176.144C512.177 175.552 513.161 175.256 514.265 175.256C515.273 175.256 516.177 175.52 516.977 176.048C517.777 176.576 518.401 177.216 518.849 177.968V170.48H520.961V185.6C520.961 185.856 521.009 186.048 521.105 186.176C521.217 186.288 521.393 186.352 521.633 186.368V188C521.233 188.064 520.921 188.096 520.697 188.096C520.281 188.096 519.913 187.952 519.593 187.664C519.289 187.376 519.137 187.056 519.137 186.704V185.648C518.641 186.448 517.977 187.08 517.145 187.544C516.313 188.008 515.449 188.24 514.553 188.24C513.689 188.24 512.889 188.072 512.153 187.736C511.433 187.384 510.801 186.904 510.257 186.296C509.729 185.688 509.313 185 509.009 184.232C508.721 183.448 508.577 182.624 508.577 181.76ZM518.849 183.608V180.008C518.657 179.464 518.345 178.976 517.913 178.544C517.481 178.096 516.993 177.744 516.449 177.488C515.921 177.216 515.393 177.08 514.865 177.08C514.241 177.08 513.673 177.216 513.161 177.488C512.665 177.744 512.233 178.096 511.865 178.544C511.513 178.976 511.241 179.472 511.049 180.032C510.857 180.592 510.761 181.176 510.761 181.784C510.761 182.408 510.865 183 511.073 183.56C511.297 184.12 511.601 184.616 511.985 185.048C512.385 185.48 512.841 185.816 513.353 186.056C513.881 186.296 514.449 186.416 515.057 186.416C515.441 186.416 515.833 186.344 516.233 186.2C516.649 186.056 517.041 185.856 517.409 185.6C517.777 185.344 518.089 185.048 518.345 184.712C518.601 184.36 518.769 183.992 518.849 183.608ZM0.888 219.76C0.888 218.576 1.128 217.496 1.608 216.52C2.104 215.528 2.776 214.736 3.624 214.144C4.488 213.552 5.472 213.256 6.576 213.256C7.584 213.256 8.488 213.52 9.288 214.048C10.088 214.576 10.712 215.216 11.16 215.968V208.48H13.272V223.6C13.272 223.856 13.32 224.048 13.416 224.176C13.528 224.288 13.704 224.352 13.944 224.368V226C13.544 226.064 13.232 226.096 13.008 226.096C12.592 226.096 12.224 225.952 11.904 225.664C11.6 225.376 11.448 225.056 11.448 224.704V223.648C10.952 224.448 10.288 225.08 9.456 225.544C8.624 226.008 7.76 226.24 6.864 226.24C6 226.24 5.2 226.072 4.464 225.736C3.744 225.384 3.112 224.904 2.568 224.296C2.04 223.688 1.624 223 1.32 222.232C1.032 221.448 0.888 220.624 0.888 219.76ZM11.16 221.608V218.008C10.968 217.464 10.656 216.976 10.224 216.544C9.792 216.096 9.304 215.744 8.76 215.488C8.232 215.216 7.704 215.08 7.176 215.08C6.552 215.08 5.984 215.216 5.472 215.488C4.976 215.744 4.544 216.096 4.176 216.544C3.824 216.976 3.552 217.472 3.36 218.032C3.168 218.592 3.072 219.176 3.072 219.784C3.072 220.408 3.176 221 3.384 221.56C3.608 222.12 3.912 222.616 4.296 223.048C4.696 223.48 5.152 223.816 5.664 224.056C6.192 224.296 6.76 224.416 7.368 224.416C7.752 224.416 8.144 224.344 8.544 224.2C8.96 224.056 9.352 223.856 9.72 223.6C10.088 223.344 10.4 223.048 10.656 222.712C10.912 222.36 11.08 221.992 11.16 221.608ZM16.0137 222.376C16.0137 221.576 16.2377 220.888 16.6857 220.312C17.1497 219.72 17.7817 219.264 18.5818 218.944C19.3817 218.624 20.3098 218.464 21.3658 218.464C21.9258 218.464 22.5178 218.512 23.1418 218.608C23.7658 218.688 24.3178 218.816 24.7978 218.992V218.08C24.7978 217.12 24.5098 216.368 23.9338 215.824C23.3577 215.264 22.5417 214.984 21.4858 214.984C20.7977 214.984 20.1337 215.112 19.4938 215.368C18.8698 215.608 18.2057 215.96 17.5017 216.424L16.7337 214.936C17.5497 214.376 18.3657 213.96 19.1817 213.688C19.9978 213.4 20.8458 213.256 21.7257 213.256C23.3258 213.256 24.5898 213.704 25.5178 214.6C26.4458 215.48 26.9098 216.712 26.9098 218.296V223.6C26.9098 223.856 26.9578 224.048 27.0538 224.176C27.1658 224.288 27.3418 224.352 27.5818 224.368V226C27.3738 226.032 27.1898 226.056 27.0298 226.072C26.8858 226.088 26.7658 226.096 26.6698 226.096C26.1738 226.096 25.7978 225.96 25.5418 225.688C25.3018 225.416 25.1658 225.128 25.1338 224.824L25.0858 224.032C24.5418 224.736 23.8298 225.28 22.9497 225.664C22.0697 226.048 21.1977 226.24 20.3338 226.24C19.5017 226.24 18.7577 226.072 18.1017 225.736C17.4457 225.384 16.9337 224.92 16.5657 224.344C16.1977 223.752 16.0137 223.096 16.0137 222.376ZM24.1737 223.264C24.3658 223.04 24.5178 222.816 24.6298 222.592C24.7418 222.352 24.7978 222.152 24.7978 221.992V220.432C24.3018 220.24 23.7818 220.096 23.2378 220C22.6938 219.888 22.1578 219.832 21.6297 219.832C20.5577 219.832 19.6858 220.048 19.0137 220.48C18.3577 220.896 18.0297 221.472 18.0297 222.208C18.0297 222.608 18.1337 223 18.3417 223.384C18.5657 223.752 18.8857 224.056 19.3018 224.296C19.7337 224.536 20.2617 224.656 20.8858 224.656C21.5418 224.656 22.1658 224.528 22.7578 224.272C23.3498 224 23.8218 223.664 24.1737 223.264ZM30.4868 226V213.472H32.5988V226H30.4868ZM30.4868 211.12V208.48H32.5988V211.12H30.4868ZM36.2661 208.48H38.3781V222.76C38.3781 223.448 38.4741 223.872 38.6661 224.032C38.8581 224.192 39.0901 224.272 39.3621 224.272C39.6981 224.272 40.0181 224.24 40.3221 224.176C40.6261 224.096 40.8821 224.016 41.0901 223.936L41.4261 225.664C41.0741 225.808 40.6581 225.928 40.1781 226.024C39.6981 226.12 39.2741 226.168 38.9061 226.168C38.0901 226.168 37.4421 225.936 36.9621 225.472C36.4981 225.008 36.2661 224.36 36.2661 223.528V208.48ZM43.4159 229.408C43.6239 229.424 43.8319 229.44 44.0399 229.456C44.2479 229.488 44.4079 229.504 44.5199 229.504C44.7759 229.504 44.9999 229.416 45.1919 229.24C45.3839 229.064 45.5919 228.72 45.8159 228.208C46.0559 227.712 46.3599 226.976 46.7279 226L41.4239 213.472H43.6559L47.8799 223.864L51.6959 213.472H53.7839L47.6879 229.288C47.5439 229.656 47.3279 230 47.0399 230.32C46.7679 230.656 46.4159 230.92 45.9839 231.112C45.5519 231.304 45.0319 231.4 44.4239 231.4C44.2799 231.4 44.1279 231.392 43.9679 231.376C43.8239 231.36 43.6399 231.328 43.4159 231.28V229.408ZM68.1641 226.24C67.1881 226.24 66.3001 226 65.5001 225.52C64.7001 225.04 64.0681 224.416 63.6041 223.648V226H61.7321V208.48H63.8441V215.968C64.3721 215.152 65.0201 214.496 65.7881 214C66.5561 213.504 67.4521 213.256 68.4761 213.256C69.3401 213.256 70.1161 213.44 70.8041 213.808C71.4921 214.16 72.0761 214.648 72.5561 215.272C73.0521 215.88 73.4281 216.576 73.6841 217.36C73.9561 218.128 74.0921 218.936 74.0921 219.784C74.0921 220.664 73.9401 221.496 73.6361 222.28C73.3481 223.048 72.9321 223.736 72.3881 224.344C71.8441 224.936 71.2121 225.4 70.4921 225.736C69.7881 226.072 69.0121 226.24 68.1641 226.24ZM67.6361 224.416C68.2601 224.416 68.8361 224.288 69.3641 224.032C69.8921 223.776 70.3481 223.432 70.7321 223C71.1161 222.568 71.4121 222.072 71.6201 221.512C71.8281 220.952 71.9321 220.376 71.9321 219.784C71.9321 218.968 71.7561 218.2 71.4041 217.48C71.0681 216.76 70.5881 216.184 69.9641 215.752C69.3561 215.304 68.6441 215.08 67.8281 215.08C67.2361 215.08 66.6841 215.216 66.1721 215.488C65.6601 215.76 65.2041 216.12 64.8041 216.568C64.4201 217 64.1001 217.48 63.8441 218.008V221.632C63.9241 222.032 64.0921 222.4 64.3481 222.736C64.6041 223.072 64.9161 223.368 65.2841 223.624C65.6521 223.864 66.0361 224.056 66.4361 224.2C66.8521 224.344 67.2521 224.416 67.6361 224.416ZM75.9013 222.376C75.9013 221.576 76.1253 220.888 76.5733 220.312C77.0373 219.72 77.6693 219.264 78.4693 218.944C79.2693 218.624 80.1973 218.464 81.2533 218.464C81.8133 218.464 82.4053 218.512 83.0293 218.608C83.6533 218.688 84.2053 218.816 84.6853 218.992V218.08C84.6853 217.12 84.3973 216.368 83.8213 215.824C83.2453 215.264 82.4293 214.984 81.3733 214.984C80.6853 214.984 80.0213 215.112 79.3813 215.368C78.7573 215.608 78.0933 215.96 77.3893 216.424L76.6213 214.936C77.4373 214.376 78.2533 213.96 79.0693 213.688C79.8853 213.4 80.7333 213.256 81.6133 213.256C83.2133 213.256 84.4773 213.704 85.4053 214.6C86.3333 215.48 86.7973 216.712 86.7973 218.296V223.6C86.7973 223.856 86.8453 224.048 86.9413 224.176C87.0533 224.288 87.2293 224.352 87.4693 224.368V226C87.2613 226.032 87.0773 226.056 86.9173 226.072C86.7733 226.088 86.6533 226.096 86.5573 226.096C86.0613 226.096 85.6853 225.96 85.4293 225.688C85.1893 225.416 85.0533 225.128 85.0213 224.824L84.9733 224.032C84.4293 224.736 83.7173 225.28 82.8373 225.664C81.9573 226.048 81.0853 226.24 80.2213 226.24C79.3893 226.24 78.6453 226.072 77.9893 225.736C77.3333 225.384 76.8213 224.92 76.4533 224.344C76.0853 223.752 75.9013 223.096 75.9013 222.376ZM84.0613 223.264C84.2533 223.04 84.4053 222.816 84.5173 222.592C84.6293 222.352 84.6853 222.152 84.6853 221.992V220.432C84.1893 220.24 83.6693 220.096 83.1253 220C82.5813 219.888 82.0453 219.832 81.5173 219.832C80.4453 219.832 79.5733 220.048 78.9013 220.48C78.2453 220.896 77.9173 221.472 77.9173 222.208C77.9173 222.608 78.0213 223 78.2293 223.384C78.4533 223.752 78.7733 224.056 79.1893 224.296C79.6213 224.536 80.1493 224.656 80.7733 224.656C81.4293 224.656 82.0533 224.528 82.6453 224.272C83.2373 224 83.7093 223.664 84.0613 223.264ZM94.6703 226.24C93.6303 226.24 92.6543 226.072 91.7423 225.736C90.8303 225.384 90.0463 224.864 89.3903 224.176L90.2063 222.688C90.9263 223.36 91.6463 223.84 92.3663 224.128C93.0863 224.416 93.8223 224.56 94.5743 224.56C95.4383 224.56 96.1423 224.4 96.6863 224.08C97.2303 223.744 97.5023 223.256 97.5023 222.616C97.5023 222.152 97.3583 221.808 97.0703 221.584C96.7983 221.36 96.4063 221.176 95.8943 221.032C95.3823 220.872 94.7743 220.696 94.0703 220.504C93.2063 220.248 92.4783 219.976 91.8863 219.688C91.2943 219.4 90.8463 219.04 90.5423 218.608C90.2383 218.176 90.0863 217.632 90.0863 216.976C90.0863 216.176 90.2943 215.504 90.7103 214.96C91.1263 214.4 91.6943 213.976 92.4143 213.688C93.1503 213.4 93.9823 213.256 94.9103 213.256C95.8383 213.256 96.6783 213.4 97.4303 213.688C98.1823 213.976 98.8303 214.4 99.3743 214.96L98.4143 216.424C97.9183 215.912 97.3743 215.536 96.7823 215.296C96.1903 215.04 95.5263 214.912 94.7903 214.912C94.3583 214.912 93.9343 214.968 93.5183 215.08C93.1023 215.176 92.7583 215.36 92.4863 215.632C92.2143 215.888 92.0783 216.256 92.0783 216.736C92.0783 217.136 92.1823 217.456 92.3903 217.696C92.6143 217.92 92.9343 218.112 93.3503 218.272C93.7823 218.432 94.3023 218.608 94.9103 218.8C95.8543 219.072 96.6703 219.344 97.3583 219.616C98.0623 219.888 98.6063 220.24 98.9903 220.672C99.3743 221.104 99.5663 221.704 99.5663 222.472C99.5663 223.656 99.1183 224.584 98.2223 225.256C97.3263 225.912 96.1423 226.24 94.6703 226.24ZM107.837 226.24C106.893 226.24 106.029 226.072 105.245 225.736C104.477 225.384 103.805 224.912 103.229 224.32C102.669 223.712 102.229 223.016 101.909 222.232C101.605 221.448 101.453 220.616 101.453 219.736C101.453 218.552 101.725 217.472 102.269 216.496C102.813 215.52 103.565 214.736 104.525 214.144C105.501 213.552 106.613 213.256 107.861 213.256C109.125 213.256 110.221 213.56 111.149 214.168C112.093 214.76 112.821 215.544 113.333 216.52C113.861 217.48 114.125 218.52 114.125 219.64C114.125 219.8 114.117 219.96 114.101 220.12C114.101 220.264 114.093 220.376 114.077 220.456H103.685C103.749 221.272 103.973 222 104.357 222.64C104.757 223.264 105.269 223.76 105.893 224.128C106.517 224.48 107.189 224.656 107.909 224.656C108.677 224.656 109.397 224.464 110.069 224.08C110.757 223.696 111.229 223.192 111.485 222.568L113.309 223.072C113.037 223.68 112.629 224.224 112.085 224.704C111.557 225.184 110.925 225.56 110.189 225.832C109.469 226.104 108.685 226.24 107.837 226.24ZM103.613 218.992H112.157C112.093 218.176 111.861 217.456 111.461 216.832C111.061 216.208 110.549 215.72 109.925 215.368C109.301 215.016 108.613 214.84 107.861 214.84C107.125 214.84 106.445 215.016 105.821 215.368C105.197 215.72 104.685 216.208 104.285 216.832C103.901 217.456 103.677 218.176 103.613 218.992ZM115.857 219.76C115.857 218.576 116.097 217.496 116.577 216.52C117.073 215.528 117.745 214.736 118.593 214.144C119.457 213.552 120.441 213.256 121.545 213.256C122.553 213.256 123.457 213.52 124.257 214.048C125.057 214.576 125.681 215.216 126.129 215.968V208.48H128.241V223.6C128.241 223.856 128.289 224.048 128.385 224.176C128.497 224.288 128.673 224.352 128.913 224.368V226C128.513 226.064 128.201 226.096 127.977 226.096C127.561 226.096 127.193 225.952 126.873 225.664C126.569 225.376 126.417 225.056 126.417 224.704V223.648C125.921 224.448 125.257 225.08 124.425 225.544C123.593 226.008 122.729 226.24 121.833 226.24C120.969 226.24 120.169 226.072 119.433 225.736C118.713 225.384 118.081 224.904 117.537 224.296C117.009 223.688 116.593 223 116.289 222.232C116.001 221.448 115.857 220.624 115.857 219.76ZM126.129 221.608V218.008C125.937 217.464 125.625 216.976 125.193 216.544C124.761 216.096 124.273 215.744 123.729 215.488C123.201 215.216 122.673 215.08 122.145 215.08C121.521 215.08 120.953 215.216 120.441 215.488C119.945 215.744 119.513 216.096 119.145 216.544C118.793 216.976 118.521 217.472 118.329 218.032C118.137 218.592 118.041 219.176 118.041 219.784C118.041 220.408 118.145 221 118.353 221.56C118.577 222.12 118.881 222.616 119.265 223.048C119.665 223.48 120.121 223.816 120.633 224.056C121.161 224.296 121.729 224.416 122.337 224.416C122.721 224.416 123.113 224.344 123.513 224.2C123.929 224.056 124.321 223.856 124.689 223.6C125.057 223.344 125.369 223.048 125.625 222.712C125.881 222.36 126.049 221.992 126.129 221.608ZM143.709 226.24C142.765 226.24 141.909 226.072 141.141 225.736C140.373 225.384 139.709 224.912 139.149 224.32C138.589 223.712 138.157 223.016 137.853 222.232C137.549 221.448 137.397 220.624 137.397 219.76C137.397 218.88 137.549 218.048 137.853 217.264C138.157 216.48 138.589 215.792 139.149 215.2C139.709 214.592 140.373 214.12 141.141 213.784C141.925 213.432 142.781 213.256 143.709 213.256C144.653 213.256 145.509 213.432 146.277 213.784C147.045 214.12 147.709 214.592 148.269 215.2C148.845 215.792 149.285 216.48 149.589 217.264C149.893 218.048 150.045 218.88 150.045 219.76C150.045 220.624 149.893 221.448 149.589 222.232C149.285 223.016 148.853 223.712 148.293 224.32C147.733 224.912 147.061 225.384 146.277 225.736C145.509 226.072 144.653 226.24 143.709 226.24ZM139.557 219.784C139.557 220.648 139.741 221.432 140.109 222.136C140.493 222.84 140.997 223.4 141.621 223.816C142.245 224.216 142.941 224.416 143.709 224.416C144.477 224.416 145.173 224.208 145.797 223.792C146.437 223.376 146.941 222.816 147.309 222.112C147.693 221.392 147.885 220.6 147.885 219.736C147.885 218.872 147.693 218.088 147.309 217.384C146.941 216.68 146.437 216.12 145.797 215.704C145.173 215.288 144.477 215.08 143.709 215.08C142.941 215.08 142.245 215.296 141.621 215.728C140.997 216.144 140.493 216.704 140.109 217.408C139.741 218.112 139.557 218.904 139.557 219.784ZM163.676 226H161.564V218.992C161.564 217.664 161.356 216.696 160.94 216.088C160.54 215.464 159.924 215.152 159.092 215.152C158.516 215.152 157.94 215.296 157.364 215.584C156.804 215.872 156.3 216.264 155.852 216.76C155.42 217.24 155.108 217.8 154.916 218.44V226H152.804V213.472H154.724V216.16C155.06 215.568 155.492 215.056 156.02 214.624C156.548 214.192 157.148 213.856 157.82 213.616C158.492 213.376 159.196 213.256 159.932 213.256C160.652 213.256 161.252 213.392 161.732 213.664C162.228 213.92 162.612 214.288 162.884 214.768C163.172 215.232 163.372 215.784 163.484 216.424C163.612 217.064 163.676 217.76 163.676 218.512V226ZM173.311 220.984V213.472H175.423V220.576C175.423 221.856 175.647 222.816 176.095 223.456C176.543 224.096 177.207 224.416 178.087 224.416C178.663 224.416 179.215 224.296 179.743 224.056C180.287 223.8 180.775 223.44 181.207 222.976C181.639 222.512 181.975 221.96 182.215 221.32V213.472H184.327V223.6C184.327 223.856 184.375 224.048 184.471 224.176C184.583 224.288 184.759 224.352 184.999 224.368V226C184.759 226.032 184.567 226.048 184.423 226.048C184.295 226.064 184.167 226.072 184.039 226.072C183.639 226.072 183.295 225.952 183.007 225.712C182.719 225.456 182.567 225.144 182.551 224.776L182.503 223.312C181.959 224.24 181.223 224.96 180.295 225.472C179.383 225.984 178.383 226.24 177.295 226.24C175.983 226.24 174.991 225.8 174.319 224.92C173.647 224.024 173.311 222.712 173.311 220.984ZM192.341 226.24C191.301 226.24 190.325 226.072 189.413 225.736C188.501 225.384 187.717 224.864 187.061 224.176L187.877 222.688C188.597 223.36 189.317 223.84 190.037 224.128C190.757 224.416 191.493 224.56 192.245 224.56C193.109 224.56 193.813 224.4 194.357 224.08C194.901 223.744 195.173 223.256 195.173 222.616C195.173 222.152 195.029 221.808 194.741 221.584C194.469 221.36 194.077 221.176 193.565 221.032C193.053 220.872 192.445 220.696 191.741 220.504C190.877 220.248 190.149 219.976 189.557 219.688C188.965 219.4 188.517 219.04 188.213 218.608C187.909 218.176 187.757 217.632 187.757 216.976C187.757 216.176 187.965 215.504 188.381 214.96C188.797 214.4 189.365 213.976 190.085 213.688C190.821 213.4 191.653 213.256 192.581 213.256C193.509 213.256 194.349 213.4 195.101 213.688C195.853 213.976 196.501 214.4 197.045 214.96L196.085 216.424C195.589 215.912 195.045 215.536 194.453 215.296C193.861 215.04 193.197 214.912 192.461 214.912C192.029 214.912 191.605 214.968 191.189 215.08C190.773 215.176 190.429 215.36 190.157 215.632C189.885 215.888 189.749 216.256 189.749 216.736C189.749 217.136 189.853 217.456 190.061 217.696C190.285 217.92 190.605 218.112 191.021 218.272C191.453 218.432 191.973 218.608 192.581 218.8C193.525 219.072 194.341 219.344 195.029 219.616C195.733 219.888 196.277 220.24 196.661 220.672C197.045 221.104 197.237 221.704 197.237 222.472C197.237 223.656 196.789 224.584 195.893 225.256C194.997 225.912 193.813 226.24 192.341 226.24ZM205.507 226.24C204.563 226.24 203.699 226.072 202.915 225.736C202.147 225.384 201.475 224.912 200.899 224.32C200.339 223.712 199.899 223.016 199.579 222.232C199.275 221.448 199.123 220.616 199.123 219.736C199.123 218.552 199.395 217.472 199.939 216.496C200.483 215.52 201.235 214.736 202.195 214.144C203.171 213.552 204.283 213.256 205.531 213.256C206.795 213.256 207.891 213.56 208.819 214.168C209.763 214.76 210.491 215.544 211.003 216.52C211.531 217.48 211.795 218.52 211.795 219.64C211.795 219.8 211.787 219.96 211.771 220.12C211.771 220.264 211.763 220.376 211.747 220.456H201.355C201.419 221.272 201.643 222 202.027 222.64C202.427 223.264 202.939 223.76 203.563 224.128C204.187 224.48 204.859 224.656 205.579 224.656C206.347 224.656 207.067 224.464 207.739 224.08C208.427 223.696 208.899 223.192 209.155 222.568L210.979 223.072C210.707 223.68 210.299 224.224 209.755 224.704C209.227 225.184 208.595 225.56 207.859 225.832C207.139 226.104 206.355 226.24 205.507 226.24ZM201.283 218.992H209.827C209.763 218.176 209.531 217.456 209.131 216.832C208.731 216.208 208.219 215.72 207.595 215.368C206.971 215.016 206.283 214.84 205.531 214.84C204.795 214.84 204.115 215.016 203.491 215.368C202.867 215.72 202.355 216.208 201.955 216.832C201.571 217.456 201.347 218.176 201.283 218.992ZM220.967 215.32C219.911 215.336 218.975 215.608 218.159 216.136C217.359 216.648 216.791 217.36 216.455 218.272V226H214.343V213.472H216.311V216.376C216.743 215.512 217.311 214.816 218.015 214.288C218.735 213.744 219.487 213.44 220.271 213.376C220.431 213.376 220.567 213.376 220.679 213.376C220.791 213.376 220.887 213.384 220.967 213.4V215.32ZM235.594 215.32C234.538 215.336 233.602 215.608 232.786 216.136C231.986 216.648 231.418 217.36 231.082 218.272V226H228.97V213.472H230.938V216.376C231.37 215.512 231.938 214.816 232.642 214.288C233.362 213.744 234.114 213.44 234.898 213.376C235.058 213.376 235.194 213.376 235.306 213.376C235.418 213.376 235.514 213.384 235.594 213.4V215.32ZM243.128 226.24C242.184 226.24 241.32 226.072 240.536 225.736C239.768 225.384 239.096 224.912 238.52 224.32C237.96 223.712 237.52 223.016 237.2 222.232C236.896 221.448 236.744 220.616 236.744 219.736C236.744 218.552 237.016 217.472 237.56 216.496C238.104 215.52 238.856 214.736 239.816 214.144C240.792 213.552 241.904 213.256 243.152 213.256C244.416 213.256 245.512 213.56 246.44 214.168C247.384 214.76 248.112 215.544 248.624 216.52C249.152 217.48 249.416 218.52 249.416 219.64C249.416 219.8 249.408 219.96 249.392 220.12C249.392 220.264 249.384 220.376 249.368 220.456H238.976C239.04 221.272 239.264 222 239.648 222.64C240.048 223.264 240.56 223.76 241.184 224.128C241.808 224.48 242.48 224.656 243.2 224.656C243.968 224.656 244.688 224.464 245.36 224.08C246.048 223.696 246.52 223.192 246.776 222.568L248.6 223.072C248.328 223.68 247.92 224.224 247.376 224.704C246.848 225.184 246.216 225.56 245.48 225.832C244.76 226.104 243.976 226.24 243.128 226.24ZM238.904 218.992H247.448C247.384 218.176 247.152 217.456 246.752 216.832C246.352 216.208 245.84 215.72 245.216 215.368C244.592 215.016 243.904 214.84 243.152 214.84C242.416 214.84 241.736 215.016 241.112 215.368C240.488 215.72 239.976 216.208 239.576 216.832C239.192 217.456 238.968 218.176 238.904 218.992ZM255.235 226L250.315 213.472H252.523L256.459 223.984L260.395 213.472H262.459L257.539 226H255.235ZM264.773 226V213.472H266.885V226H264.773ZM264.773 211.12V208.48H266.885V211.12H264.773ZM276.048 226.24C275.104 226.24 274.24 226.072 273.456 225.736C272.688 225.384 272.016 224.912 271.44 224.32C270.88 223.712 270.44 223.016 270.12 222.232C269.816 221.448 269.664 220.616 269.664 219.736C269.664 218.552 269.936 217.472 270.48 216.496C271.024 215.52 271.776 214.736 272.736 214.144C273.712 213.552 274.824 213.256 276.072 213.256C277.336 213.256 278.432 213.56 279.36 214.168C280.304 214.76 281.032 215.544 281.544 216.52C282.072 217.48 282.336 218.52 282.336 219.64C282.336 219.8 282.328 219.96 282.312 220.12C282.312 220.264 282.304 220.376 282.288 220.456H271.896C271.96 221.272 272.184 222 272.568 222.64C272.968 223.264 273.48 223.76 274.104 224.128C274.728 224.48 275.4 224.656 276.12 224.656C276.888 224.656 277.608 224.464 278.28 224.08C278.968 223.696 279.44 223.192 279.696 222.568L281.52 223.072C281.248 223.68 280.84 224.224 280.296 224.704C279.768 225.184 279.136 225.56 278.4 225.832C277.68 226.104 276.896 226.24 276.048 226.24ZM271.824 218.992H280.368C280.304 218.176 280.072 217.456 279.672 216.832C279.272 216.208 278.76 215.72 278.136 215.368C277.512 215.016 276.824 214.84 276.072 214.84C275.336 214.84 274.656 215.016 274.032 215.368C273.408 215.72 272.896 216.208 272.496 216.832C272.112 217.456 271.888 218.176 271.824 218.992ZM300.252 213.472H302.292L296.964 226H295.116L292.692 220.096L290.292 226H288.444L283.116 213.472H285.132L289.452 223.912L291.468 218.776L289.356 213.496H291.204L292.692 217.48L294.18 213.496H296.028L293.94 218.776L295.956 223.912L300.252 213.472ZM308.458 226.24C307.418 226.24 306.442 226.072 305.53 225.736C304.618 225.384 303.834 224.864 303.178 224.176L303.994 222.688C304.714 223.36 305.434 223.84 306.154 224.128C306.874 224.416 307.61 224.56 308.362 224.56C309.226 224.56 309.93 224.4 310.474 224.08C311.018 223.744 311.29 223.256 311.29 222.616C311.29 222.152 311.146 221.808 310.858 221.584C310.586 221.36 310.194 221.176 309.682 221.032C309.17 220.872 308.562 220.696 307.858 220.504C306.994 220.248 306.266 219.976 305.674 219.688C305.082 219.4 304.634 219.04 304.33 218.608C304.026 218.176 303.874 217.632 303.874 216.976C303.874 216.176 304.082 215.504 304.498 214.96C304.914 214.4 305.482 213.976 306.202 213.688C306.938 213.4 307.77 213.256 308.698 213.256C309.626 213.256 310.466 213.4 311.218 213.688C311.97 213.976 312.618 214.4 313.162 214.96L312.202 216.424C311.706 215.912 311.162 215.536 310.57 215.296C309.978 215.04 309.314 214.912 308.578 214.912C308.146 214.912 307.722 214.968 307.306 215.08C306.89 215.176 306.546 215.36 306.274 215.632C306.002 215.888 305.866 216.256 305.866 216.736C305.866 217.136 305.97 217.456 306.178 217.696C306.402 217.92 306.722 218.112 307.138 218.272C307.57 218.432 308.09 218.608 308.698 218.8C309.642 219.072 310.458 219.344 311.146 219.616C311.85 219.888 312.394 220.24 312.778 220.672C313.162 221.104 313.354 221.704 313.354 222.472C313.354 223.656 312.906 224.584 312.01 225.256C311.114 225.912 309.93 226.24 308.458 226.24ZM321.367 222.376C321.367 221.576 321.591 220.888 322.039 220.312C322.503 219.72 323.135 219.264 323.935 218.944C324.735 218.624 325.663 218.464 326.719 218.464C327.279 218.464 327.871 218.512 328.495 218.608C329.119 218.688 329.671 218.816 330.151 218.992V218.08C330.151 217.12 329.863 216.368 329.287 215.824C328.711 215.264 327.895 214.984 326.839 214.984C326.151 214.984 325.487 215.112 324.847 215.368C324.223 215.608 323.559 215.96 322.855 216.424L322.087 214.936C322.903 214.376 323.719 213.96 324.535 213.688C325.351 213.4 326.199 213.256 327.079 213.256C328.679 213.256 329.943 213.704 330.871 214.6C331.799 215.48 332.263 216.712 332.263 218.296V223.6C332.263 223.856 332.311 224.048 332.407 224.176C332.519 224.288 332.695 224.352 332.935 224.368V226C332.727 226.032 332.543 226.056 332.383 226.072C332.239 226.088 332.119 226.096 332.023 226.096C331.527 226.096 331.151 225.96 330.895 225.688C330.655 225.416 330.519 225.128 330.487 224.824L330.439 224.032C329.895 224.736 329.183 225.28 328.303 225.664C327.423 226.048 326.551 226.24 325.687 226.24C324.855 226.24 324.111 226.072 323.455 225.736C322.799 225.384 322.287 224.92 321.919 224.344C321.551 223.752 321.367 223.096 321.367 222.376ZM329.527 223.264C329.719 223.04 329.871 222.816 329.983 222.592C330.095 222.352 330.151 222.152 330.151 221.992V220.432C329.655 220.24 329.135 220.096 328.591 220C328.047 219.888 327.511 219.832 326.983 219.832C325.911 219.832 325.039 220.048 324.367 220.48C323.711 220.896 323.383 221.472 323.383 222.208C323.383 222.608 323.487 223 323.695 223.384C323.919 223.752 324.239 224.056 324.655 224.296C325.087 224.536 325.615 224.656 326.239 224.656C326.895 224.656 327.519 224.528 328.111 224.272C328.703 224 329.175 223.664 329.527 223.264ZM346.712 226H344.6V218.992C344.6 217.664 344.392 216.696 343.976 216.088C343.576 215.464 342.96 215.152 342.128 215.152C341.552 215.152 340.976 215.296 340.4 215.584C339.84 215.872 339.336 216.264 338.888 216.76C338.456 217.24 338.144 217.8 337.952 218.44V226H335.84V213.472H337.76V216.16C338.096 215.568 338.528 215.056 339.056 214.624C339.584 214.192 340.184 213.856 340.856 213.616C341.528 213.376 342.232 213.256 342.968 213.256C343.688 213.256 344.288 213.392 344.768 213.664C345.264 213.92 345.648 214.288 345.92 214.768C346.208 215.232 346.408 215.784 346.52 216.424C346.648 217.064 346.712 217.76 346.712 218.512V226ZM349.38 219.76C349.38 218.576 349.62 217.496 350.1 216.52C350.596 215.528 351.268 214.736 352.116 214.144C352.98 213.552 353.964 213.256 355.068 213.256C356.076 213.256 356.98 213.52 357.78 214.048C358.58 214.576 359.204 215.216 359.652 215.968V208.48H361.764V223.6C361.764 223.856 361.812 224.048 361.908 224.176C362.02 224.288 362.196 224.352 362.436 224.368V226C362.036 226.064 361.724 226.096 361.5 226.096C361.084 226.096 360.716 225.952 360.396 225.664C360.092 225.376 359.94 225.056 359.94 224.704V223.648C359.444 224.448 358.78 225.08 357.948 225.544C357.116 226.008 356.252 226.24 355.356 226.24C354.492 226.24 353.692 226.072 352.956 225.736C352.236 225.384 351.604 224.904 351.06 224.296C350.532 223.688 350.116 223 349.812 222.232C349.524 221.448 349.38 220.624 349.38 219.76ZM359.652 221.608V218.008C359.46 217.464 359.148 216.976 358.716 216.544C358.284 216.096 357.796 215.744 357.252 215.488C356.724 215.216 356.196 215.08 355.668 215.08C355.044 215.08 354.476 215.216 353.964 215.488C353.468 215.744 353.036 216.096 352.668 216.544C352.316 216.976 352.044 217.472 351.852 218.032C351.66 218.592 351.564 219.176 351.564 219.784C351.564 220.408 351.668 221 351.876 221.56C352.1 222.12 352.404 222.616 352.788 223.048C353.188 223.48 353.644 223.816 354.156 224.056C354.684 224.296 355.252 224.416 355.86 224.416C356.244 224.416 356.636 224.344 357.036 224.2C357.452 224.056 357.844 223.856 358.212 223.6C358.58 223.344 358.892 223.048 359.148 222.712C359.404 222.36 359.572 221.992 359.652 221.608ZM378.384 215.32C377.328 215.336 376.392 215.608 375.576 216.136C374.776 216.648 374.208 217.36 373.872 218.272V226H371.76V213.472H373.728V216.376C374.16 215.512 374.728 214.816 375.432 214.288C376.152 213.744 376.904 213.44 377.688 213.376C377.848 213.376 377.984 213.376 378.096 213.376C378.208 213.376 378.304 213.384 378.384 213.4V215.32ZM379.695 222.376C379.695 221.576 379.919 220.888 380.367 220.312C380.831 219.72 381.463 219.264 382.263 218.944C383.063 218.624 383.991 218.464 385.047 218.464C385.607 218.464 386.199 218.512 386.823 218.608C387.447 218.688 387.999 218.816 388.479 218.992V218.08C388.479 217.12 388.191 216.368 387.615 215.824C387.039 215.264 386.223 214.984 385.167 214.984C384.479 214.984 383.815 215.112 383.175 215.368C382.551 215.608 381.887 215.96 381.183 216.424L380.415 214.936C381.231 214.376 382.047 213.96 382.863 213.688C383.679 213.4 384.527 213.256 385.407 213.256C387.007 213.256 388.271 213.704 389.199 214.6C390.127 215.48 390.591 216.712 390.591 218.296V223.6C390.591 223.856 390.639 224.048 390.735 224.176C390.847 224.288 391.023 224.352 391.263 224.368V226C391.055 226.032 390.871 226.056 390.711 226.072C390.567 226.088 390.447 226.096 390.351 226.096C389.855 226.096 389.479 225.96 389.223 225.688C388.983 225.416 388.847 225.128 388.815 224.824L388.767 224.032C388.223 224.736 387.511 225.28 386.631 225.664C385.751 226.048 384.879 226.24 384.015 226.24C383.183 226.24 382.439 226.072 381.783 225.736C381.127 225.384 380.615 224.92 380.247 224.344C379.879 223.752 379.695 223.096 379.695 222.376ZM387.855 223.264C388.047 223.04 388.199 222.816 388.311 222.592C388.423 222.352 388.479 222.152 388.479 221.992V220.432C387.983 220.24 387.463 220.096 386.919 220C386.375 219.888 385.839 219.832 385.311 219.832C384.239 219.832 383.367 220.048 382.695 220.48C382.039 220.896 381.711 221.472 381.711 222.208C381.711 222.608 381.815 223 382.023 223.384C382.247 223.752 382.567 224.056 382.983 224.296C383.415 224.536 383.943 224.656 384.567 224.656C385.223 224.656 385.847 224.528 386.439 224.272C387.031 224 387.503 223.664 387.855 223.264ZM400.554 225.376C400.378 225.456 400.138 225.56 399.834 225.688C399.53 225.816 399.178 225.928 398.778 226.024C398.378 226.12 397.954 226.168 397.506 226.168C396.994 226.168 396.522 226.08 396.09 225.904C395.658 225.712 395.314 225.424 395.058 225.04C394.802 224.64 394.674 224.144 394.674 223.552V215.128H392.97V213.472H394.674V209.296H396.786V213.472H399.594V215.128H396.786V222.904C396.818 223.352 396.97 223.688 397.242 223.912C397.514 224.12 397.834 224.224 398.202 224.224C398.618 224.224 399.002 224.152 399.354 224.008C399.706 223.864 399.938 223.76 400.05 223.696L400.554 225.376ZM402.712 226V213.472H404.824V226H402.712ZM402.712 211.12V208.48H404.824V211.12H402.712ZM419.315 226H417.203V218.992C417.203 217.664 416.995 216.696 416.579 216.088C416.179 215.464 415.563 215.152 414.731 215.152C414.155 215.152 413.579 215.296 413.003 215.584C412.443 215.872 411.939 216.264 411.491 216.76C411.059 217.24 410.747 217.8 410.555 218.44V226H408.443V213.472H410.363V216.16C410.699 215.568 411.131 215.056 411.659 214.624C412.187 214.192 412.787 213.856 413.459 213.616C414.131 213.376 414.835 213.256 415.571 213.256C416.291 213.256 416.891 213.392 417.371 213.664C417.867 213.92 418.251 214.288 418.523 214.768C418.811 215.232 419.011 215.784 419.123 216.424C419.251 217.064 419.315 217.76 419.315 218.512V226ZM427.791 226.144C426.943 226.144 426.159 225.976 425.439 225.64C424.735 225.288 424.127 224.816 423.615 224.224C423.103 223.616 422.703 222.928 422.415 222.16C422.143 221.392 422.007 220.592 422.007 219.76C422.007 218.88 422.143 218.048 422.415 217.264C422.703 216.48 423.103 215.792 423.615 215.2C424.143 214.592 424.759 214.12 425.463 213.784C426.167 213.432 426.951 213.256 427.815 213.256C428.855 213.256 429.759 213.512 430.527 214.024C431.311 214.536 431.967 215.184 432.495 215.968V213.472H434.367V225.856C434.367 227.04 434.079 228.04 433.503 228.856C432.943 229.672 432.175 230.288 431.199 230.704C430.239 231.136 429.167 231.352 427.983 231.352C426.575 231.352 425.423 231.104 424.527 230.608C423.631 230.112 422.887 229.44 422.295 228.592L423.519 227.512C424.015 228.248 424.655 228.8 425.439 229.168C426.239 229.536 427.087 229.72 427.983 229.72C428.751 229.72 429.455 229.576 430.095 229.288C430.751 229.016 431.271 228.592 431.655 228.016C432.055 227.44 432.255 226.72 432.255 225.856V223.648C431.791 224.416 431.151 225.024 430.335 225.472C429.535 225.92 428.687 226.144 427.791 226.144ZM428.439 224.416C428.887 224.416 429.319 224.336 429.735 224.176C430.151 224.016 430.535 223.808 430.887 223.552C431.239 223.28 431.535 222.976 431.775 222.64C432.015 222.304 432.175 221.96 432.255 221.608V218.008C432.031 217.432 431.711 216.928 431.295 216.496C430.879 216.048 430.407 215.704 429.879 215.464C429.351 215.208 428.807 215.08 428.247 215.08C427.607 215.08 427.031 215.216 426.519 215.488C426.023 215.76 425.599 216.128 425.247 216.592C424.895 217.04 424.623 217.544 424.431 218.104C424.239 218.664 424.143 219.232 424.143 219.808C424.143 220.432 424.255 221.024 424.479 221.584C424.703 222.128 425.007 222.616 425.391 223.048C425.775 223.48 426.231 223.816 426.759 224.056C427.287 224.296 427.847 224.416 428.439 224.416ZM437.808 226V223.312H439.584V226H437.808Z" fill="#868686"/>
</svg>
