<svg width="467" height="45" viewBox="0 0 467 45" fill="none" xmlns="http://www.w3.org/2000/svg">
<path d="M19.02 1.52H26.7L31.56 15.62L36.48 1.52H44.1L36.78 20.9L42.18 34.46L54.24 1.4H63.24L46.2 44H39.06L31.56 26.12L24.12 44H16.98L0 1.4H8.88L21 34.46L26.28 20.9L19.02 1.52ZM77.3853 44.6C74.8653 44.6 72.5853 44.18 70.5453 43.34C68.5053 42.46 66.7653 41.28 65.3253 39.8C63.8853 38.28 62.7653 36.56 61.9653 34.64C61.2053 32.68 60.8253 30.62 60.8253 28.46C60.8253 25.46 61.4853 22.72 62.8053 20.24C64.1653 17.76 66.0853 15.78 68.5653 14.3C71.0853 12.78 74.0453 12.02 77.4453 12.02C80.8853 12.02 83.8253 12.78 86.2653 14.3C88.7053 15.78 90.5653 17.76 91.8453 20.24C93.1653 22.68 93.8253 25.32 93.8253 28.16C93.8253 28.64 93.8053 29.14 93.7653 29.66C93.7253 30.14 93.6853 30.54 93.6453 30.86H69.3453C69.5053 32.46 69.9653 33.86 70.7253 35.06C71.5253 36.26 72.5253 37.18 73.7253 37.82C74.9653 38.42 76.2853 38.72 77.6853 38.72C79.2853 38.72 80.7853 38.34 82.1853 37.58C83.6253 36.78 84.6053 35.74 85.1253 34.46L92.0253 36.38C91.2653 37.98 90.1653 39.4 88.7253 40.64C87.3253 41.88 85.6653 42.86 83.7453 43.58C81.8253 44.26 79.7053 44.6 77.3853 44.6ZM69.1653 25.76H85.6053C85.4453 24.16 84.9853 22.78 84.2253 21.62C83.5053 20.42 82.5453 19.5 81.3453 18.86C80.1453 18.18 78.8053 17.84 77.3253 17.84C75.8853 17.84 74.5653 18.18 73.3653 18.86C72.2053 19.5 71.2453 20.42 70.4853 21.62C69.7653 22.78 69.3253 24.16 69.1653 25.76ZM98.8633 0.199999H106.903V33.92C106.903 35.36 107.143 36.34 107.623 36.86C108.103 37.34 108.763 37.58 109.603 37.58C110.243 37.58 110.903 37.5 111.583 37.34C112.263 37.18 112.863 36.98 113.383 36.74L114.463 42.86C113.383 43.38 112.123 43.78 110.683 44.06C109.243 44.34 107.943 44.48 106.783 44.48C104.263 44.48 102.303 43.82 100.903 42.5C99.5433 41.14 98.8633 39.22 98.8633 36.74V0.199999ZM132.806 44.6C130.246 44.6 127.946 44.18 125.906 43.34C123.866 42.46 122.126 41.26 120.686 39.74C119.246 38.18 118.126 36.42 117.326 34.46C116.566 32.5 116.186 30.44 116.186 28.28C116.186 25.32 116.846 22.62 118.166 20.18C119.526 17.7 121.446 15.72 123.926 14.24C126.406 12.76 129.346 12.02 132.746 12.02C136.146 12.02 139.066 12.76 141.506 14.24C143.946 15.72 145.766 17.66 146.966 20.06L139.106 22.46C138.426 21.3 137.526 20.42 136.406 19.82C135.286 19.18 134.046 18.86 132.686 18.86C131.166 18.86 129.766 19.26 128.486 20.06C127.246 20.82 126.266 21.92 125.546 23.36C124.826 24.76 124.466 26.4 124.466 28.28C124.466 30.12 124.826 31.76 125.546 33.2C126.306 34.6 127.306 35.72 128.546 36.56C129.786 37.36 131.166 37.76 132.686 37.76C133.646 37.76 134.546 37.6 135.386 37.28C136.266 36.96 137.046 36.52 137.726 35.96C138.406 35.4 138.906 34.76 139.226 34.04L147.086 36.44C146.366 38 145.306 39.4 143.906 40.64C142.546 41.88 140.926 42.86 139.046 43.58C137.206 44.26 135.126 44.6 132.806 44.6ZM166.46 44.6C163.9 44.6 161.6 44.18 159.56 43.34C157.52 42.46 155.78 41.26 154.34 39.74C152.94 38.22 151.86 36.48 151.1 34.52C150.34 32.56 149.96 30.5 149.96 28.34C149.96 26.14 150.34 24.06 151.1 22.1C151.86 20.14 152.94 18.4 154.34 16.88C155.78 15.36 157.52 14.18 159.56 13.34C161.6 12.46 163.9 12.02 166.46 12.02C169.02 12.02 171.3 12.46 173.3 13.34C175.34 14.18 177.08 15.36 178.52 16.88C179.96 18.4 181.04 20.14 181.76 22.1C182.52 24.06 182.9 26.14 182.9 28.34C182.9 30.5 182.52 32.56 181.76 34.52C181.04 36.48 179.96 38.22 178.52 39.74C177.12 41.26 175.4 42.46 173.36 43.34C171.32 44.18 169.02 44.6 166.46 44.6ZM158.24 28.34C158.24 30.18 158.6 31.82 159.32 33.26C160.04 34.66 161.02 35.76 162.26 36.56C163.5 37.36 164.9 37.76 166.46 37.76C167.98 37.76 169.36 37.36 170.6 36.56C171.84 35.72 172.82 34.6 173.54 33.2C174.3 31.76 174.68 30.12 174.68 28.28C174.68 26.48 174.3 24.86 173.54 23.42C172.82 21.98 171.84 20.86 170.6 20.06C169.36 19.26 167.98 18.86 166.46 18.86C164.9 18.86 163.5 19.28 162.26 20.12C161.02 20.92 160.04 22.04 159.32 23.48C158.6 24.88 158.24 26.5 158.24 28.34ZM237.367 44H229.327V26.36C229.327 23.88 228.887 22.06 228.007 20.9C227.167 19.7 225.987 19.1 224.467 19.1C222.907 19.1 221.407 19.72 219.967 20.96C218.567 22.16 217.567 23.74 216.967 25.7V44H208.927V26.36C208.927 23.84 208.487 22 207.607 20.84C206.767 19.68 205.587 19.1 204.067 19.1C202.507 19.1 201.007 19.7 199.567 20.9C198.167 22.1 197.167 23.68 196.567 25.64V44H188.527V12.56H195.787V18.38C196.987 16.34 198.587 14.78 200.587 13.7C202.587 12.58 204.887 12.02 207.487 12.02C210.087 12.02 212.107 12.66 213.547 13.94C215.027 15.22 215.967 16.8 216.367 18.68C217.647 16.52 219.267 14.88 221.227 13.76C223.227 12.6 225.467 12.02 227.947 12.02C229.907 12.02 231.487 12.38 232.687 13.1C233.927 13.78 234.887 14.72 235.567 15.92C236.247 17.08 236.707 18.4 236.947 19.88C237.227 21.36 237.367 22.86 237.367 24.38V44ZM259.147 44.6C256.627 44.6 254.347 44.18 252.307 43.34C250.267 42.46 248.527 41.28 247.087 39.8C245.647 38.28 244.527 36.56 243.727 34.64C242.967 32.68 242.587 30.62 242.587 28.46C242.587 25.46 243.247 22.72 244.567 20.24C245.927 17.76 247.847 15.78 250.327 14.3C252.847 12.78 255.807 12.02 259.207 12.02C262.647 12.02 265.587 12.78 268.027 14.3C270.467 15.78 272.327 17.76 273.607 20.24C274.927 22.68 275.587 25.32 275.587 28.16C275.587 28.64 275.567 29.14 275.527 29.66C275.487 30.14 275.447 30.54 275.407 30.86H251.107C251.267 32.46 251.727 33.86 252.487 35.06C253.287 36.26 254.287 37.18 255.487 37.82C256.727 38.42 258.047 38.72 259.447 38.72C261.047 38.72 262.547 38.34 263.947 37.58C265.387 36.78 266.367 35.74 266.887 34.46L273.787 36.38C273.027 37.98 271.927 39.4 270.487 40.64C269.087 41.88 267.427 42.86 265.507 43.58C263.587 44.26 261.467 44.6 259.147 44.6ZM250.927 25.76H267.367C267.207 24.16 266.747 22.78 265.987 21.62C265.267 20.42 264.307 19.5 263.107 18.86C261.907 18.18 260.567 17.84 259.087 17.84C257.647 17.84 256.327 18.18 255.127 18.86C253.967 19.5 253.007 20.42 252.247 21.62C251.527 22.78 251.087 24.16 250.927 25.76ZM314.139 42.38C313.459 42.66 312.639 42.98 311.679 43.34C310.719 43.7 309.679 43.98 308.559 44.18C307.479 44.42 306.379 44.54 305.259 44.54C303.779 44.54 302.419 44.28 301.179 43.76C299.939 43.24 298.939 42.42 298.179 41.3C297.459 40.14 297.099 38.64 297.099 36.8V18.74H292.959V12.56H297.099V2.36H305.139V12.56H311.739V18.74H305.139V34.1C305.179 35.18 305.479 35.96 306.039 36.44C306.599 36.92 307.299 37.16 308.139 37.16C308.979 37.16 309.799 37.02 310.599 36.74C311.399 36.46 312.039 36.22 312.519 36.02L314.139 42.38ZM332.695 44.6C330.135 44.6 327.835 44.18 325.795 43.34C323.755 42.46 322.015 41.26 320.575 39.74C319.175 38.22 318.095 36.48 317.335 34.52C316.575 32.56 316.195 30.5 316.195 28.34C316.195 26.14 316.575 24.06 317.335 22.1C318.095 20.14 319.175 18.4 320.575 16.88C322.015 15.36 323.755 14.18 325.795 13.34C327.835 12.46 330.135 12.02 332.695 12.02C335.255 12.02 337.535 12.46 339.535 13.34C341.575 14.18 343.315 15.36 344.755 16.88C346.195 18.4 347.275 20.14 347.995 22.1C348.755 24.06 349.135 26.14 349.135 28.34C349.135 30.5 348.755 32.56 347.995 34.52C347.275 36.48 346.195 38.22 344.755 39.74C343.355 41.26 341.635 42.46 339.595 43.34C337.555 44.18 335.255 44.6 332.695 44.6ZM324.475 28.34C324.475 30.18 324.835 31.82 325.555 33.26C326.275 34.66 327.255 35.76 328.495 36.56C329.735 37.36 331.135 37.76 332.695 37.76C334.215 37.76 335.595 37.36 336.835 36.56C338.075 35.72 339.055 34.6 339.775 33.2C340.535 31.76 340.915 30.12 340.915 28.28C340.915 26.48 340.535 24.86 339.775 23.42C339.055 21.98 338.075 20.86 336.835 20.06C335.595 19.26 334.215 18.86 332.695 18.86C331.135 18.86 329.735 19.28 328.495 20.12C327.255 20.92 326.275 22.04 325.555 23.48C324.835 24.88 324.475 26.5 324.475 28.34ZM379.861 1.4H388.261L403.921 44H395.401L391.441 33.38H376.561L372.661 44H364.141L379.861 1.4ZM389.941 27.56L384.061 9.98L377.941 27.56H389.941ZM408.793 44V1.4H427.633C429.593 1.4 431.393 1.8 433.033 2.6C434.713 3.4 436.153 4.48 437.353 5.84C438.593 7.2 439.533 8.72 440.173 10.4C440.853 12.08 441.193 13.8 441.193 15.56C441.193 17.36 440.873 19.1 440.233 20.78C439.633 22.42 438.753 23.86 437.593 25.1C436.433 26.34 435.073 27.3 433.513 27.98L443.233 44H434.113L425.353 29.72H417.073V44H408.793ZM417.073 22.46H427.453C428.493 22.46 429.413 22.16 430.213 21.56C431.013 20.92 431.653 20.08 432.133 19.04C432.613 18 432.853 16.84 432.853 15.56C432.853 14.2 432.573 13.02 432.013 12.02C431.453 10.98 430.733 10.16 429.853 9.56C429.013 8.96 428.093 8.66 427.093 8.66H417.073V22.46ZM466.721 42.38C466.041 42.66 465.221 42.98 464.261 43.34C463.301 43.7 462.261 43.98 461.141 44.18C460.061 44.42 458.961 44.54 457.841 44.54C456.361 44.54 455.001 44.28 453.761 43.76C452.521 43.24 451.521 42.42 450.761 41.3C450.041 40.14 449.681 38.64 449.681 36.8V18.74H445.541V12.56H449.681V2.36H457.721V12.56H464.321V18.74H457.721V34.1C457.761 35.18 458.061 35.96 458.621 36.44C459.181 36.92 459.881 37.16 460.721 37.16C461.561 37.16 462.381 37.02 463.181 36.74C463.981 36.46 464.621 36.22 465.101 36.02L466.721 42.38Z" fill="black"/>
</svg>
