<svg width="284" height="150" viewBox="0 0 284 150" fill="none" xmlns="http://www.w3.org/2000/svg">
<g filter="url(#filter0_d_1_690)">
<rect x="40" y="20" width="204" height="70" rx="10" fill="#5956E9"/>
</g>
<path d="M73.6993 60.34C73.6993 61.14 73.4927 61.8133 73.0793 62.36C72.666 62.8933 72.106 63.3 71.3993 63.58C70.706 63.86 69.946 64 69.1193 64H62.2593V49.8H69.8593C70.526 49.8 71.0993 49.98 71.5793 50.34C72.0727 50.6867 72.446 51.14 72.6993 51.7C72.966 52.2467 73.0993 52.82 73.0993 53.42C73.0993 54.1 72.926 54.7467 72.5793 55.36C72.2327 55.9733 71.726 56.4267 71.0593 56.72C71.8727 56.96 72.5127 57.3933 72.9793 58.02C73.4593 58.6467 73.6993 59.42 73.6993 60.34ZM70.9193 59.82C70.9193 59.46 70.846 59.14 70.6993 58.86C70.5527 58.5667 70.3527 58.34 70.0993 58.18C69.8593 58.0067 69.5793 57.92 69.2593 57.92H65.0193V61.66H69.1193C69.4527 61.66 69.7527 61.58 70.0193 61.42C70.2993 61.2467 70.5193 61.02 70.6793 60.74C70.8393 60.46 70.9193 60.1533 70.9193 59.82ZM65.0193 52.16V55.74H68.6993C69.006 55.74 69.286 55.6667 69.5393 55.52C69.7927 55.3733 69.9927 55.1667 70.1393 54.9C70.2993 54.6333 70.3793 54.3133 70.3793 53.94C70.3793 53.58 70.306 53.2667 70.1593 53C70.026 52.7333 69.8393 52.5267 69.5993 52.38C69.3727 52.2333 69.1127 52.16 68.8193 52.16H65.0193ZM81.8331 55.84C81.0197 55.84 80.2931 56 79.6531 56.32C79.0131 56.6267 78.5531 57.0733 78.2731 57.66V64H75.5931V53.52H78.0531V55.76C78.4264 55.04 78.8997 54.4733 79.4731 54.06C80.0464 53.6467 80.6531 53.42 81.2931 53.38C81.4397 53.38 81.5531 53.38 81.6331 53.38C81.7131 53.38 81.7797 53.3867 81.8331 53.4V55.84ZM88.0307 64.2C87.1774 64.2 86.4107 64.06 85.7307 63.78C85.0507 63.4867 84.4707 63.0867 83.9907 62.58C83.5241 62.0733 83.1641 61.4933 82.9107 60.84C82.6574 60.1867 82.5307 59.5 82.5307 58.78C82.5307 58.0467 82.6574 57.3533 82.9107 56.7C83.1641 56.0467 83.5241 55.4667 83.9907 54.96C84.4707 54.4533 85.0507 54.06 85.7307 53.78C86.4107 53.4867 87.1774 53.34 88.0307 53.34C88.8841 53.34 89.6441 53.4867 90.3107 53.78C90.9907 54.06 91.5707 54.4533 92.0507 54.96C92.5307 55.4667 92.8907 56.0467 93.1307 56.7C93.3841 57.3533 93.5107 58.0467 93.5107 58.78C93.5107 59.5 93.3841 60.1867 93.1307 60.84C92.8907 61.4933 92.5307 62.0733 92.0507 62.58C91.5841 63.0867 91.0107 63.4867 90.3307 63.78C89.6507 64.06 88.8841 64.2 88.0307 64.2ZM85.2907 58.78C85.2907 59.3933 85.4107 59.94 85.6507 60.42C85.8907 60.8867 86.2174 61.2533 86.6307 61.52C87.0441 61.7867 87.5107 61.92 88.0307 61.92C88.5374 61.92 88.9974 61.7867 89.4107 61.52C89.8241 61.24 90.1507 60.8667 90.3907 60.4C90.6441 59.92 90.7707 59.3733 90.7707 58.76C90.7707 58.16 90.6441 57.62 90.3907 57.14C90.1507 56.66 89.8241 56.2867 89.4107 56.02C88.9974 55.7533 88.5374 55.62 88.0307 55.62C87.5107 55.62 87.0441 55.76 86.6307 56.04C86.2174 56.3067 85.8907 56.68 85.6507 57.16C85.4107 57.6267 85.2907 58.1667 85.2907 58.78ZM107.968 53.52H110.508L106.128 64H103.888L102.128 59.5L100.408 64H98.1481L93.7881 53.52H96.3081L99.4281 61.44L100.648 58.02L98.8281 53.54H101.048L102.128 56.74L103.228 53.54H105.448L103.628 58.02L104.868 61.44L107.968 53.52ZM115.352 64.2C114.458 64.2 113.605 64.0533 112.792 63.76C111.978 63.4667 111.278 63.0333 110.692 62.46L111.652 60.72C112.278 61.2267 112.892 61.6 113.492 61.84C114.105 62.08 114.692 62.2 115.252 62.2C115.772 62.2 116.185 62.1067 116.492 61.92C116.812 61.7333 116.972 61.4533 116.972 61.08C116.972 60.8267 116.885 60.6333 116.712 60.5C116.538 60.3533 116.285 60.2267 115.952 60.12C115.632 60.0133 115.238 59.8933 114.772 59.76C113.998 59.5067 113.352 59.26 112.832 59.02C112.312 58.78 111.918 58.48 111.652 58.12C111.398 57.7467 111.272 57.2733 111.272 56.7C111.272 56.0067 111.445 55.4133 111.792 54.92C112.152 54.4133 112.645 54.02 113.272 53.74C113.912 53.46 114.658 53.32 115.512 53.32C116.258 53.32 116.965 53.44 117.632 53.68C118.298 53.9067 118.905 54.28 119.452 54.8L118.372 56.5C117.838 56.0867 117.332 55.7867 116.852 55.6C116.372 55.4 115.885 55.3 115.392 55.3C115.112 55.3 114.845 55.3333 114.592 55.4C114.352 55.4667 114.152 55.58 113.992 55.74C113.845 55.8867 113.772 56.1 113.772 56.38C113.772 56.6333 113.838 56.8333 113.972 56.98C114.118 57.1133 114.332 57.2333 114.612 57.34C114.905 57.4467 115.258 57.5667 115.672 57.7C116.512 57.94 117.218 58.1867 117.792 58.44C118.378 58.6933 118.818 59.0067 119.112 59.38C119.405 59.74 119.552 60.24 119.552 60.88C119.552 61.92 119.172 62.7333 118.412 63.32C117.652 63.9067 116.632 64.2 115.352 64.2ZM126.234 64.2C125.394 64.2 124.634 64.06 123.954 63.78C123.274 63.4867 122.694 63.0933 122.214 62.6C121.734 62.0933 121.361 61.52 121.094 60.88C120.841 60.2267 120.714 59.54 120.714 58.82C120.714 57.82 120.934 56.9067 121.374 56.08C121.828 55.2533 122.468 54.5933 123.294 54.1C124.134 53.5933 125.121 53.34 126.254 53.34C127.401 53.34 128.381 53.5933 129.194 54.1C130.008 54.5933 130.628 55.2533 131.054 56.08C131.494 56.8933 131.714 57.7733 131.714 58.72C131.714 58.88 131.708 59.0467 131.694 59.22C131.681 59.38 131.668 59.5133 131.654 59.62H123.554C123.608 60.1533 123.761 60.62 124.014 61.02C124.281 61.42 124.614 61.7267 125.014 61.94C125.428 62.14 125.868 62.24 126.334 62.24C126.868 62.24 127.368 62.1133 127.834 61.86C128.314 61.5933 128.641 61.2467 128.814 60.82L131.114 61.46C130.861 61.9933 130.494 62.4667 130.014 62.88C129.548 63.2933 128.994 63.62 128.354 63.86C127.714 64.0867 127.008 64.2 126.234 64.2ZM123.494 57.92H128.974C128.921 57.3867 128.768 56.9267 128.514 56.54C128.274 56.14 127.954 55.8333 127.554 55.62C127.154 55.3933 126.708 55.28 126.214 55.28C125.734 55.28 125.294 55.3933 124.894 55.62C124.508 55.8333 124.188 56.14 123.934 56.54C123.694 56.9267 123.548 57.3867 123.494 57.92ZM138.412 64V49.8H144.432C145.085 49.8 145.685 49.9333 146.232 50.2C146.778 50.4667 147.252 50.8267 147.652 51.28C148.065 51.7333 148.385 52.24 148.612 52.8C148.838 53.36 148.952 53.9333 148.952 54.52C148.952 55.32 148.765 56.08 148.392 56.8C148.018 57.52 147.505 58.1067 146.852 58.56C146.198 59.0133 145.425 59.24 144.532 59.24H141.172V64H138.412ZM141.172 56.82H144.372C144.705 56.82 145.005 56.7267 145.272 56.54C145.538 56.3533 145.752 56.0867 145.912 55.74C146.072 55.38 146.152 54.9733 146.152 54.52C146.152 54.0267 146.058 53.6067 145.872 53.26C145.698 52.9133 145.465 52.6533 145.172 52.48C144.892 52.3067 144.585 52.22 144.252 52.22H141.172V56.82ZM156.853 55.84C156.039 55.84 155.313 56 154.673 56.32C154.033 56.6267 153.573 57.0733 153.293 57.66V64H150.613V53.52H153.073V55.76C153.446 55.04 153.919 54.4733 154.493 54.06C155.066 53.6467 155.673 53.42 156.313 53.38C156.459 53.38 156.573 53.38 156.653 53.38C156.733 53.38 156.799 53.3867 156.853 53.4V55.84ZM163.05 64.2C162.197 64.2 161.43 64.06 160.75 63.78C160.07 63.4867 159.49 63.0867 159.01 62.58C158.544 62.0733 158.184 61.4933 157.93 60.84C157.677 60.1867 157.55 59.5 157.55 58.78C157.55 58.0467 157.677 57.3533 157.93 56.7C158.184 56.0467 158.544 55.4667 159.01 54.96C159.49 54.4533 160.07 54.06 160.75 53.78C161.43 53.4867 162.197 53.34 163.05 53.34C163.904 53.34 164.664 53.4867 165.33 53.78C166.01 54.06 166.59 54.4533 167.07 54.96C167.55 55.4667 167.91 56.0467 168.15 56.7C168.404 57.3533 168.53 58.0467 168.53 58.78C168.53 59.5 168.404 60.1867 168.15 60.84C167.91 61.4933 167.55 62.0733 167.07 62.58C166.604 63.0867 166.03 63.4867 165.35 63.78C164.67 64.06 163.904 64.2 163.05 64.2ZM160.31 58.78C160.31 59.3933 160.43 59.94 160.67 60.42C160.91 60.8867 161.237 61.2533 161.65 61.52C162.064 61.7867 162.53 61.92 163.05 61.92C163.557 61.92 164.017 61.7867 164.43 61.52C164.844 61.24 165.17 60.8667 165.41 60.4C165.664 59.92 165.79 59.3733 165.79 58.76C165.79 58.16 165.664 57.62 165.41 57.14C165.17 56.66 164.844 56.2867 164.43 56.02C164.017 55.7533 163.557 55.62 163.05 55.62C162.53 55.62 162.064 55.76 161.65 56.04C161.237 56.3067 160.91 56.68 160.67 57.16C160.43 57.6267 160.31 58.1667 160.31 58.78ZM169.699 58.76C169.699 57.7467 169.899 56.8333 170.299 56.02C170.699 55.1933 171.253 54.54 171.959 54.06C172.666 53.58 173.473 53.34 174.379 53.34C175.153 53.34 175.846 53.5333 176.459 53.92C177.086 54.2933 177.573 54.7733 177.919 55.36V49.4H180.599V61C180.599 61.28 180.646 61.48 180.739 61.6C180.833 61.72 180.993 61.7933 181.219 61.82V64C180.753 64.0933 180.373 64.14 180.079 64.14C179.599 64.14 179.199 64.02 178.879 63.78C178.573 63.54 178.399 63.2267 178.359 62.84L178.319 62.18C177.933 62.8333 177.406 63.3333 176.739 63.68C176.086 64.0267 175.399 64.2 174.679 64.2C173.959 64.2 173.293 64.06 172.679 63.78C172.079 63.5 171.553 63.1133 171.099 62.62C170.659 62.1267 170.313 61.5533 170.059 60.9C169.819 60.2333 169.699 59.52 169.699 58.76ZM177.919 60.16V57.66C177.786 57.2733 177.573 56.9267 177.279 56.62C176.986 56.3133 176.659 56.0733 176.299 55.9C175.939 55.7133 175.579 55.62 175.219 55.62C174.806 55.62 174.433 55.7067 174.099 55.88C173.766 56.0533 173.473 56.2867 173.219 56.58C172.979 56.8733 172.793 57.2133 172.659 57.6C172.539 57.9867 172.479 58.3933 172.479 58.82C172.479 59.2467 172.546 59.6533 172.679 60.04C172.826 60.4133 173.033 60.74 173.299 61.02C173.566 61.3 173.873 61.52 174.219 61.68C174.579 61.84 174.966 61.92 175.379 61.92C175.633 61.92 175.886 61.88 176.139 61.8C176.406 61.7067 176.653 61.5867 176.879 61.44C177.119 61.28 177.326 61.0933 177.499 60.88C177.686 60.6533 177.826 60.4133 177.919 60.16ZM183.13 60.08V53.52H185.81V59.5C185.81 60.3 185.956 60.9067 186.25 61.32C186.543 61.72 186.976 61.92 187.55 61.92C187.896 61.92 188.236 61.8533 188.57 61.72C188.916 61.5733 189.23 61.36 189.51 61.08C189.803 60.8 190.05 60.4467 190.25 60.02V53.52H192.93V61C192.93 61.28 192.976 61.48 193.07 61.6C193.176 61.72 193.343 61.7933 193.57 61.82V64C193.303 64.04 193.076 64.0667 192.89 64.08C192.716 64.1067 192.556 64.12 192.41 64.12C191.93 64.12 191.536 64.0133 191.23 63.8C190.936 63.5733 190.763 63.2667 190.71 62.88L190.65 62.04C190.183 62.7467 189.583 63.2867 188.85 63.66C188.116 64.02 187.31 64.2 186.43 64.2C185.35 64.2 184.53 63.8533 183.97 63.16C183.41 62.4533 183.13 61.4267 183.13 60.08ZM200.473 64.2C199.62 64.2 198.853 64.06 198.173 63.78C197.493 63.4867 196.913 63.0867 196.433 62.58C195.953 62.06 195.58 61.4733 195.313 60.82C195.06 60.1667 194.933 59.48 194.933 58.76C194.933 57.7733 195.153 56.8733 195.593 56.06C196.046 55.2333 196.686 54.5733 197.513 54.08C198.34 53.5867 199.32 53.34 200.453 53.34C201.586 53.34 202.56 53.5867 203.373 54.08C204.186 54.5733 204.793 55.22 205.193 56.02L202.573 56.82C202.346 56.4333 202.046 56.14 201.673 55.94C201.3 55.7267 200.886 55.62 200.433 55.62C199.926 55.62 199.46 55.7533 199.033 56.02C198.62 56.2733 198.293 56.64 198.053 57.12C197.813 57.5867 197.693 58.1333 197.693 58.76C197.693 59.3733 197.813 59.92 198.053 60.4C198.306 60.8667 198.64 61.24 199.053 61.52C199.466 61.7867 199.926 61.92 200.433 61.92C200.753 61.92 201.053 61.8667 201.333 61.76C201.626 61.6533 201.886 61.5067 202.113 61.32C202.34 61.1333 202.506 60.92 202.613 60.68L205.233 61.48C204.993 62 204.64 62.4667 204.173 62.88C203.72 63.2933 203.18 63.62 202.553 63.86C201.94 64.0867 201.246 64.2 200.473 64.2ZM213.162 63.46C212.935 63.5533 212.662 63.66 212.342 63.78C212.022 63.9 211.675 63.9933 211.302 64.06C210.942 64.14 210.575 64.18 210.202 64.18C209.709 64.18 209.255 64.0933 208.842 63.92C208.429 63.7467 208.095 63.4733 207.842 63.1C207.602 62.7133 207.482 62.2133 207.482 61.6V55.58H206.102V53.52H207.482V50.12H210.162V53.52H212.362V55.58H210.162V60.7C210.175 61.06 210.275 61.32 210.462 61.48C210.649 61.64 210.882 61.72 211.162 61.72C211.442 61.72 211.715 61.6733 211.982 61.58C212.249 61.4867 212.462 61.4067 212.622 61.34L213.162 63.46ZM218.418 64.2C217.525 64.2 216.671 64.0533 215.858 63.76C215.045 63.4667 214.345 63.0333 213.758 62.46L214.718 60.72C215.345 61.2267 215.958 61.6 216.558 61.84C217.171 62.08 217.758 62.2 218.318 62.2C218.838 62.2 219.251 62.1067 219.558 61.92C219.878 61.7333 220.038 61.4533 220.038 61.08C220.038 60.8267 219.951 60.6333 219.778 60.5C219.605 60.3533 219.351 60.2267 219.018 60.12C218.698 60.0133 218.305 59.8933 217.838 59.76C217.065 59.5067 216.418 59.26 215.898 59.02C215.378 58.78 214.985 58.48 214.718 58.12C214.465 57.7467 214.338 57.2733 214.338 56.7C214.338 56.0067 214.511 55.4133 214.858 54.92C215.218 54.4133 215.711 54.02 216.338 53.74C216.978 53.46 217.725 53.32 218.578 53.32C219.325 53.32 220.031 53.44 220.698 53.68C221.365 53.9067 221.971 54.28 222.518 54.8L221.438 56.5C220.905 56.0867 220.398 55.7867 219.918 55.6C219.438 55.4 218.951 55.3 218.458 55.3C218.178 55.3 217.911 55.3333 217.658 55.4C217.418 55.4667 217.218 55.58 217.058 55.74C216.911 55.8867 216.838 56.1 216.838 56.38C216.838 56.6333 216.905 56.8333 217.038 56.98C217.185 57.1133 217.398 57.2333 217.678 57.34C217.971 57.4467 218.325 57.5667 218.738 57.7C219.578 57.94 220.285 58.1867 220.858 58.44C221.445 58.6933 221.885 59.0067 222.178 59.38C222.471 59.74 222.618 60.24 222.618 60.88C222.618 61.92 222.238 62.7333 221.478 63.32C220.718 63.9067 219.698 64.2 218.418 64.2Z" fill="white"/>
<defs>
<filter id="filter0_d_1_690" x="0" y="0" width="284" height="150" filterUnits="userSpaceOnUse" color-interpolation-filters="sRGB">
<feFlood flood-opacity="0" result="BackgroundImageFix"/>
<feColorMatrix in="SourceAlpha" type="matrix" values="0 0 0 0 0 0 0 0 0 0 0 0 0 0 0 0 0 0 127 0" result="hardAlpha"/>
<feOffset dy="20"/>
<feGaussianBlur stdDeviation="20"/>
<feColorMatrix type="matrix" values="0 0 0 0 0 0 0 0 0 0 0 0 0 0 0 0 0 0 0.1 0"/>
<feBlend mode="normal" in2="BackgroundImageFix" result="effect1_dropShadow_1_690"/>
<feBlend mode="normal" in="SourceGraphic" in2="effect1_dropShadow_1_690" result="shape"/>
</filter>
</defs>
</svg>
